<svg xmlns="http://www.w3.org/2000/svg" version="1" viewBox="0 0 890 165">
  <path d="M716.5 2c-1.5 2.4 17.5 7 55 13 53.8 8.8 73.4 13.1 91.6 20.1 9.1 3.5 20.2 10.6 20.7 13.1.4 2.1-6 5.4-35.3 18.3-11.5 5.1-29.1 13-39 17.5-9.9 4.5-28.3 12.7-41 18.2-12.6 5.5-36.5 16.5-53 24.3-16.5 7.8-31.7 14.8-33.7 15.6-4.5 1.6-5.4 4.5-1 3.4 1.5-.3 17.3-7.6 35.2-16 17.9-8.4 45.4-21 61.2-27.9 15.8-6.9 34.7-15.3 42-18.7 7.3-3.4 23.7-10.7 36.4-16.3C880.7 55.5 888 51.7 888 49.5c0-2.2-4.6-7-9.9-10.4-14.5-9.3-38.5-15.6-95.2-25.1-23.3-3.8-47.5-8.3-53.8-10C715.9.5 717.3.7 716.5 2z"/>
  <path d="M402 48.6c-50.9 2.4-100.4 9.1-134 18-13 3.5-52 15.4-66.3 20.4-12.1 4.1-78.9 30.7-107.2 42.5-35.5 14.9-55.1 21.7-80 28-7.1 1.8-13.1 3.7-13.3 4.4-.6 1.8 2.8 1.3 17.5-2.4 19.1-4.9 38.8-11.7 66.3-23C175 99.6 203.4 88.9 242.6 77c49.3-15 93-22.1 153.9-25.1 31.4-1.5 68.4-.7 135.5 3.1 71.2 4 78 4.6 117.5 10 11.6 1.6 29.1 3.3 39 3.9 9.9.6 22.6 1.4 28.1 1.7 7.2.4 10.4.2 10.9-.6.4-.6.5-1.3.4-1.5-.2-.2-10.1-.8-21.9-1.5-27-1.4-40-2.5-56.9-5-31.7-4.7-48.3-6.1-118.1-10.1-49.4-2.7-108.5-4.3-129-3.3z"/>
</svg>
