<svg xmlns="http://www.w3.org/2000/svg" version="1" viewBox="0 0 222 70">
  <path d="M188 3c0 .5 2.1 2.6 4.6 4.7 14.1 11.5 25.4 21.7 25.4 23 0 2.3-4.9 11.2-10.8 19.8-3.1 4.4-5.9 8.2-6.2 8.5-3.7 3.4-5.6 9-3.1 9 1 0 18.1-25 21-30.7 3.6-7.2 3.2-8-8.6-18.4C192.1 3 188 .1 188 3zM128 33.1c-10.7.5-30.3 2-43.5 3.3-13.2 1.4-30.1 3-37.5 3.6-7.4.6-20.2 1.8-28.5 2.6-8.2.8-15.3 1.4-15.7 1.4-.5 0-.8.7-.8 1.6 0 1.4.8 1.6 4.7 1 2.7-.3 12.9-1.3 22.8-2.1C57.1 42.2 79.7 40 88 39c13.1-1.7 37.6-3 70.8-3.7 22.5-.4 32.1-1 31.9-1.7-.5-1.4-35.5-1.6-62.7-.5z"/>
</svg>
