<svg xmlns="http://www.w3.org/2000/svg" version="1" viewBox="0 0 393 113">
  <path d="M298 2.4c0 1 2.7 1.9 9.3 3 5 .9 20.9 3.6 35.2 6 26.4 4.5 40.5 8.2 44.6 11.5 2.1 1.7 2.2 2 .9 5.1-5 12.2-31.7 39.1-58.4 58.9-11.1 8.2-27.6 22.7-27.6 24.2 0 2.2 2.7.4 11.2-7.1 5-4.4 15.2-12.6 22.6-18.2 15.1-11.4 37.3-32.3 46.5-43.8 6.8-8.4 10.1-15.1 9.3-18.4-1.4-5.6-16-9.8-59.9-17.1-18.1-3-33-5.5-33.3-5.5-.2 0-.4.6-.4 1.4z"/>
  <path d="M191 45c-10.2 1-28.2 3.2-40 4.9-28.6 4-44.9 5.8-66 7.1-65.2 4-83.9 5.7-83 7.5.6 1.2 3.4 1.1 27-.9 10.2-.8 27.5-2 38.5-2.6 26.1-1.4 49.7-3.5 72-6.6 9.9-1.4 22.7-3.1 28.5-3.9 20.8-2.8 45.9-4.5 67-4.5 25.8 0 47.7 2.8 65.8 8.3 6.5 2 11.5 3 11.8 2.5.9-1.5-.5-2.3-8.1-4.6-29.1-9-69.2-11.5-113.5-7.2z"/>
</svg>
