<svg xmlns="http://www.w3.org/2000/svg" version="1" viewBox="0 0 1394 217">
  <path d="M452.5 4.2c-.4 1.8-1.1 13.9-1.5 26.8-1 26.8-2.4 35.3-9.6 57-4.7 14.1-12.5 29.1-20.9 40-14.1 18.2-35.9 32.8-62.4 41.7-9.6 3.2-11.9 3.6-24.6 4.1-15.6.5-22.2-.6-33-5.7-7.6-3.5-14.2-10.6-20.4-22.1-6.7-12.2-7.8-12.1-14.2 1.5-2.8 6-6.8 12.6-9 15-8.1 8.8-25.1 17.4-34.5 17.5-8.3 0-20.2-5.2-23.3-10.3-.7-1-1.6-4-2.1-6.8-.8-4.1-.6-5.9 1-10 5.9-15.7 22.2-34.4 35.9-41.2 6.3-3.2 8.3-3.7 14-3.7 3.6 0 9.3.7 12.6 1.5 3.3.8 9.1 1.4 12.8 1.5h6.8l-.3-2.8c-.5-4.4-7.6-7.4-17.7-7.3-9.2.1-30 5.5-35.4 9.3-7.5 5.1-14.1 11.5-23.8 23-24.5 28.9-36.8 40.4-58.4 55.2-33 22.6-75.1 29.6-111.1 18.5-6.3-1.9-20.3-8.4-27.1-12.5-3.9-2.3-5.7-1-2.3 1.8 5 4.2 24.9 12.8 35.7 15.6 10 2.5 12.2 2.7 30.3 2.6 18.5 0 20.1-.2 31-3.1 32.9-8.7 63-29.1 93.3-63.3l5.8-6.5-3.2 6.4c-7.8 16.1-.3 30.3 18 34.2 17.6 3.7 45.5-11.9 51.5-28.8 1.8-5.2 5.3-12 6.5-12.8.6-.3 2.7 2.9 4.8 7.2 9.7 20 26 29.3 51.3 29.3 18.2 0 30.3-3 49.5-12.5 15.2-7.4 25.1-14.2 34.3-23.5 17.4-17.5 28.3-38.1 36.6-69 1.4-5.1 1.5-2.4 1.5 36.7.1 48 0 47.5 7.2 35.1 12.8-22.2 24.9-35.8 37.9-42.3 8.7-4.4 20.3-6.9 28.6-6.2 11.3.9 23 9.5 28.9 21.3 2.7 5.2 3 6.9 3 14.9 0 7.8-.3 9.5-2.4 12.9-2.6 4.1-10.2 9.6-13.4 9.6-2.5 0-21.7-7.6-35.2-14-13.5-6.4-19.1-7.1-21.3-2.7-1.1 2.3-1.1 3.8-.2 7.9 1.5 6.2 6.8 11.9 14.3 15.4 4.6 2.1 6.6 2.4 17.4 2.4 10.5 0 13.1-.3 19.2-2.5l6.9-2.5 9.4 2.4c15.7 4 27.3 5.6 41.7 5.6 16.5 0 24.4-1.1 38.1-5.1 21.3-6.2 41.2-17.9 65-38 10.5-8.9 31.3-21.9 32.7-20.5.3.3-.1 2.1-.7 4.2-1.8 5.2-.7 18.5 2 25.6 2.8 7.4 9.8 16.1 16.6 20.4 2.9 1.8 8.8 4.5 13.1 6 7.4 2.5 8.6 2.6 22.3 2.2 12-.4 15.5-.9 20-2.7 7.5-3.1 15.2-9.1 18.3-14.3 2.9-5.1 5.7-13.9 5.7-18.3v-3.2l21.3-.6c23.7-.6 31.3-1.5 50.2-5.8 14.7-3.3 40.5-11.5 49.8-15.8 3.4-1.5 13.3-7.1 22.1-12.4 8.7-5.4 16.5-9.7 17.2-9.7 1.1 0 1.4 2.7 1.4 13.4 0 19.1 2.6 25.3 12.8 30.3 5 2.4 5.9 2.5 16 2 19.3-.9 30.8-7.8 51.7-30.7l4.9-5.5 1.2 7.1c2.2 12.9 8.8 21.6 20.6 27.3 11 5.2 17.7 6.5 33.3 6.6 23.1 0 36.1-3.9 53.1-16.1 18.4-13.2 28.5-24.5 38-42.7l5.9-11.2.6 16c.9 24.2 4.7 38 14 52 12.2 18.2 30 29.4 55.1 34.6 8.6 1.7 12.4 2 22.8 1.6 18-.8 36.2-6.3 46.9-14.2 8.9-6.5 28.1-28.2 28.1-31.7 0-2.2-2.8-.3-5.4 3.8-1.6 2.5-7.7 9.4-13.6 15.5-11.8 12.1-17.1 15.2-34.6 20.5-8 2.5-10.4 2.7-24.9 2.8-17.1 0-23.7-1.2-37.5-6.8-19.6-7.9-35.1-23.6-42.1-42.7-4.2-11.5-5.9-23.8-5.8-42.4 0-14.2.3-16.7 2.3-22l2.3-6 18.4-.7c10.1-.4 26.7-1.2 36.9-1.7 10.2-.6 30.2-1.6 44.5-2.2 27.9-1.2 39.6-2.5 40.3-4.8.3-1-.4-1.2-3.4-.8-12.5 1.8-133.7 7.7-134.8 6.6-.3-.2 1.1-6 3-12.9 3.2-11.4 3.7-17 1.5-17-2.3 0-7.1 11.2-9.8 22.7l-1.7 7.4-11.6-.6c-11-.5-41.8-2.5-69.5-4.5-7.1-.5-13.1-.7-13.4-.4-.3.2 0 .9.6 1.5 1 1 7.8 1.6 51.3 4.4 14 .9 29.3 1.9 33.8 2.2l8.4.5-.6 4.6c-.7 5.4-10.8 26.2-17.8 36.8-9.5 14.2-29.2 31-45.1 38.5-8.5 3.9-17.8 5.8-31.7 6.6-14.6.7-25.5-1.2-35.8-6.3-12.4-6.1-18.5-14.4-19.8-26.9-.4-4.1-1.2-6.9-2-7.2-2.3-.9-7.9 3.4-13.8 10.5-14.7 17.5-30.9 25.8-49.7 25-8-.3-9-.6-12.6-3.4-2.1-1.6-4.8-5-6-7.4-2.1-4-2.3-5.9-2.3-18.1 0-7.6-.3-14.4-.6-15.3-1.1-2.9-5.9-1.7-14.5 3.5-27.7 16.9-31 18.6-51.8 25.4-30.1 9.8-56.7 14-84.6 13.3l-13-.3-1.2-6.8c-2.3-12.6-9.6-22.2-21.1-27.5-5-2.4-6.9-2.7-15.4-2.6-8.8 0-10 .3-12.2 2.3-2.9 2.8-4 6.9-3.1 11.3 1 4.3 9.4 12.4 17 16.4 7.1 3.8 20.1 8 27.5 9l5.3.7-.6 6c-.7 8.2-5.6 17.9-11 21.9-7.8 5.7-13.5 7.7-25.1 8.7-22 1.9-38.1-3.8-48.4-17.1-5.4-7.1-7.3-12.4-7.9-22.9-.5-7.1-.2-9.3 1.4-13.1 2-4.3 2.3-4.5 7.8-5.6 3.2-.7 8.1-1.2 10.8-1.2 6.3 0 11.5-2.4 12.4-5.8 1-4-.8-5.7-6.6-6-5.7-.3-12.5 2.4-19.3 7.9-2.1 1.6-5.5 3.6-7.7 4.4-8.1 2.8-23.5 12.5-34 21.4-13.2 11.2-32.2 24.4-41.6 29-12.2 6-29.1 11.5-40.5 13.1-17.2 2.5-48 0-63.8-5.1l-3.3-1.1 4-2.8c2.2-1.6 5.2-5.1 6.8-7.7 2.5-4.3 2.8-5.7 2.8-13.8 0-8.3-.3-9.6-3.4-16-4.2-8.5-11.8-16.2-19.8-20.1-5.2-2.6-6.8-2.9-15.3-2.8-26 .1-44.9 14.2-64.7 48.1l-2.3 3.8.5-56c.3-30.8.7-62.9.8-71.4.1-10.7-.1-15.5-.9-15.8-.6-.2-1.5 1.1-1.9 2.9zm781.9 23.7c-.4 1.7-.9 3-1.1 2.7-.3-.2-.2-1.9.2-3.6.9-4.1 1.7-3.3.9.9zM803.8 87.6c10.8 5.4 17.3 14.1 18.8 25.1.6 5.1.6 5.3-1.8 5.3-4.3 0-18-3.9-24.7-7-16.8-7.9-24.1-18.1-17.6-24.5 2.1-2.2 3.3-2.5 10.3-2.5 7.1 0 8.7.4 15 3.6zM760 90.5c0 2.6-4.4 4.3-12.9 4.8l-8.3.5 3.3-2c5.7-3.5 9.2-4.7 13.7-4.8 3 0 4.2.4 4.2 1.5zm-486.7 15.2c9.7 4.1.3 4-17.8-.4-2.9-.7-2.8-.7 1.5-1.4 5.8-.8 11.5-.2 16.3 1.8zm233.2 38c7.2 3.3 17 7.5 21.9 9.3l8.8 3.5-3.3 1.5c-2.3 1-7.7 1.6-16.7 1.8-11.9.3-13.7.1-17.6-1.8-8.8-4.2-14.9-13.2-13-19.2.9-3 4.5-2.1 19.9 4.9z"/>
</svg>
