<svg xmlns="http://www.w3.org/2000/svg" version="1" viewBox="0 0 1511 214">
  <path d="M1283.1 2.9c-1.6 2.9-1.3 29.1.4 39.6 1.6 9.8 1.2 12.6-3 24.3-2.8 7.9-10 21.4-15.1 28.3-1.9 2.6-7.4 8.5-12.4 13.2-9.9 9.4-16.3 12.7-24.8 12.7-6.5 0-12.1-4.2-17.9-13.3-2.5-3.9-2.7-5.2-3.3-20.2-.7-18.2-1.6-20.9-9.2-28.1-6.3-6-8.8-7.4-13-7.4h-3.8v8.9c0 10.6-1.1 14.4-5.9 19.4-6 6.3-10.1 7.7-22.8 7.7h-11.1l-.7-3.1c-.4-1.8-2.9-5.5-5.9-8.5-2.9-3-4.6-5.4-3.9-5.4 1.9 0 1.6-4.7-.3-5.4-3.1-1.2-16.5-.6-20.1.9-1.9.8-4.8 1.5-6.3 1.5s-7.2.9-12.6 1.9c-26.1 5-33.5 5.3-40.4 1.8-2.5-1.2-5.1-3.4-5.7-4.8-2.8-5.9-5.9-5.9-8.1-.1-8.4 22.9-12.8 32.5-16.4 36.7-2.2 2.5-4.8 4.5-5.8 4.5-2.6 0-6.8-6.4-13-20-6-12.9-8.2-16-10.5-14.5-.8.6-4.1 6.2-7.3 12.5-8.7 16.8-16.2 21.9-22.4 15.2-6.4-6.8-14-29-14.3-41.7-.1-5.5-2.5-5.2-4.6.5-9.9 26.7-17.9 43.3-24.6 51.7-5.9 7.3-9.3 10.3-15.3 13.4l-4.5 2.4H850c-39.7 0-51.4-.3-64.5-1.8-8.8-.9-20.3-2.2-25.5-2.8-14.1-1.5-28.4-4.6-37.2-8.1-10-3.8-19.2-11.9-23.3-20.6-3.7-7.6-5.3-27.9-2.9-36.3 2.5-9 2.9-12.9 1.3-12.9-.9 0-2.6 4.1-4.8 11.8-1.9 6.4-5.7 16.8-8.4 23-4.9 11.1-5 11.3-6.2 8.5-2.5-5.8-5.7-7.6-14.6-8.1-19.7-1.1-36.5 7.9-43.6 23.6-2.2 4.7-2.6 7-2.5 13.8l.1 8.2-9.2 6.5c-11.2 7.8-19 10.7-30.2 10.9-10 .2-15.4-2-22-8.9-5.1-5.2-5-5-2-15.3.9-3 1.9-8.9 2.2-13.1.5-7.3.5-7.7-1.6-8.4-1.4-.4-3.1-.1-4.6.9-3 1.9-4 9.2-3.2 21.6.7 10 .2 11.4-8.4 20.1-8.2 8.3-11.1 9.4-25.4 9.4-10.6 0-12.5-.3-16.5-2.3-8.7-4.6-13.6-11.3-15.9-22-2-9.4-1.4-37.1 1.1-50.5 2-11 2.3-11.8 4.7-12.4 1.4-.4 26.8-.7 56.4-.8 29.5 0 53.7-.3 53.7-.7 0-.4-1.2-1.1-2.7-1.5-3.7-1-100.7-.9-105.5 0l-3.8.8V44.5c0-13.1-.2-15.5-1.5-15.5-1.2 0-1.5 1.3-1.5 5.7 0 3.2-.5 10.1-1.2 15.4l-1.2 9.6-18.5.6c-10.2.4-23 .7-28.3.7-9.3 0-12.4 1-7.7 2.5 1.2.4 13.8.4 28 0l25.9-.8v2.9c-.1 7.1-3.1 24.9-5.5 32-5.2 15.4-14.4 32.4-22.4 41.1-10.7 11.6-29.2 16.8-40.5 11.4-5.2-2.6-8.7-6.3-12.2-13.2-1.9-3.9-2.4-6.3-2.4-12.8 0-5.2.4-8.4 1.2-9.1.7-.6 3.2-2.4 5.6-4.1 5.9-4.3 7.2-10.9 2.1-10.9-2.8 0-9.4 6.9-10.2 10.6-.5 2.1-2.4 4.1-7.2 7.4-13.6 9.3-15.5 10.8-26.9 21.8-6.5 6.2-14.1 12.5-16.9 14-4.6 2.4-6.3 2.7-14.7 2.7-10.6 0-16.1-2-19.4-7-1.7-2.5-1.6-2.6 2.5-7.3 8.4-9.5 11.9-20.5 11.9-36.9 0-9.7-1.6-12-7.6-11-10.5 1.7-16.6 18.5-14.5 39.7.5 5.2 1.2 10.2 1.6 11.1 1.3 3.4-15.2 12.2-26.2 14.1-13.5 2.2-30.7-2.3-37.3-9.9-3.6-4-9-14.4-9-17.2 0-1.1 2.5-6.7 5.5-12.4C249.1 95.9 255.9 67.2 256 38c0-13.7-.2-15.9-2-18.8-3.1-5.1-6.2-3.9-11.6 4.6-7.4 11.5-9.7 19.6-13.9 49.6-2.3 16.3-2.6 21.7-2.4 38.2l.3 19.2-4.4 5.7c-7.6 9.9-21.3 22.9-27.6 26.2-3.3 1.7-8.6 3.7-11.9 4.4-7.7 1.6-20.9 1.6-25.7 0l-3.7-1.2 2.5-3.7c1.4-2 4.4-7.4 6.6-11.8 3.4-7 4.1-9.3 4.5-16.6.7-10.8-.7-15.3-5.2-17.5-6.4-3-13.1 1-18.7 11.2-3.5 6.5-3.8 7.6-3.8 15.5 0 10.8 1.1 14.5 5.7 19.2l3.8 3.9-3 2.4c-5.6 4.6-18.9 11.2-27 13.4-9.4 2.4-29.9 5.8-40.5 6.6-4.1.3-10 .8-13.1 1.1l-5.6.5 2.3-6.8c2.6-7.5 3.2-20.8 1.4-27.5-1.6-5.5-6.7-11.6-14.8-17.7-6.7-5-7.2-5.6-7.2-9.1 0-3.1.6-4.3 2.7-5.8 5.6-3.9 11.5-6.3 22.9-9.2 9-2.4 13.7-3 21.5-3 8.1 0 9.9-.3 9.9-1.5 0-2.8-17.8-2-31.2 1.4-10.9 2.7-23.8 8.3-27.2 11.6-1.8 1.8-2.2 8.6-.6 11.5.5 1 3.8 3.9 7.4 6.4 12.2 8.7 15.1 14.5 14.4 29.5-.5 10.3-3.5 19.6-6.7 20.5-.9.3-5.2.8-9.6 1.1-11.1.9-34 5.3-38.4 7.3-3.1 1.5-3.6 2.2-3.6 5.1 0 5.7 3.6 7.5 15.5 7.9 15.8.6 26.2-3.5 35.3-13.9l4.3-4.9 14-1c7.6-.6 19.5-2 26.3-3.1 24.2-3.8 35.1-7.7 46.9-16.4l6.1-4.4 3.8 1.5c8.1 3.4 30.5 1.4 40.3-3.6 6.1-3.1 16.9-12.9 25.3-22.9l7.6-9 3.5 7.2c3.7 7.6 8.1 12.9 13 15.4 10 5.2 23.7 7.3 34.1 5.4 6.2-1.2 17.5-6.1 23.4-10.3l3.5-2.5 3.5 3.8c4.8 4.9 12.7 7.3 22.5 6.7 11.1-.7 16.9-4 31.7-18.2 11.5-11 21.3-19 27.6-22.4l2.3-1.3v7.5c0 6.3.4 8.2 3.1 13.2 6.5 12.5 14 16.9 27.6 16.2 7.2-.4 9.3-1 16.7-4.6 6.8-3.4 9.4-5.4 13.5-10.2 7.4-9 13.8-19.7 18.7-31.7l4.4-10.8v11c.1 22.5 5.4 34.4 18.5 41.3 4.3 2.2 6.5 2.7 16 3 9.5.3 11.8.1 16.9-1.8 5.9-2.3 13.1-8.3 18.8-15.9l2.6-3.4 5.5 5.5c6.8 6.8 12 8.8 23 8.8 13.4 0 23.2-4 38.1-15.6l3-2.2 3.5 2.6c3 2.4 4.3 2.7 11 2.7 11.3-.1 17.3-3.2 28.9-14.8 10.4-10.5 18.2-22.5 25.2-38.8l4.5-10.4.6 9.5c.7 12.3 4.1 20 12.5 28.2 10 9.7 24.2 14.8 50.4 18.2 35.9 4.6 45.2 5.1 94.5 5.1 47.2 0 48.1 0 52.7-2.2 13.3-6.1 22.8-19.3 35.8-49.8 2.4-5.5 4.6-11.1 5-12.5.5-2.1.9-1.2 2.3 4.5.9 3.8 1.9 8.7 2.2 10.7.9 5.7 8.1 19.2 12.1 22.7 3.9 3.5 7 3.9 11.8 1.6 5.2-2.5 9-7.3 14.9-18.8l5.5-10.8 6.9 14.3c8 16.4 11.2 20.8 15.2 20.8 3.2 0 4.6-1 9.3-7 3.3-4.1 9.3-17.4 13.9-30.8 2.6-7.4 2.8-7.6 5.2-4.1 6.1 9 17.8 9.9 48.6 3.8 5.1-1.1 9.5-1.9 9.7-1.9.2 0-1 1.9-2.7 4.2-4.5 6.3-5.9 10.3-5.9 17.5 0 7.6 1.5 11.6 6.4 16.5 4.5 4.6 6.8 5.3 17.8 5.3 8.1 0 9-.3 13-3.1 5.7-4.1 9.6-9.9 10.6-15.4l.7-4.5 12-.6c13.4-.6 14.1-.8 20.6-5.7 7.1-5.3 9.2-9.9 9.7-21 .4-8.7.6-9.2 2.6-9.2 3.3 0 13.5 9.6 15.7 14.8 1.5 3.4 1.9 6.8 1.9 15.1 0 16.1.7 19.5 5.4 26.4 6 8.9 10.3 12 17.5 12.5 7.9.6 13.9-1.6 22.3-7.9 14.2-10.6 26.5-28.1 34.3-48.7l3.2-8.3 2.2 7.8c2.4 8.1 7.1 23.2 9.2 29.3.6 1.9 1.8 5.4 2.6 7.8 2.2 6.5 4.6 5.5 10.8-4.5 2.7-4.4 6.1-9.5 7.5-11.2l2.5-3.1 12.3 6.9c20.6 11.6 42.8 17.3 74.1 19.2 34.3 2.1 55.7-1.3 85.6-13.6 4.4-1.8 10.1-4 12.8-5 2.8-1 4.7-2.3 4.7-3.2 0-1-.6-1.3-1.7-1-5.9 1.9-13.6 4.8-18.7 7.1-7.9 3.5-29.4 10-38.6 11.7-12 2.2-49.2 1.6-65.5-1-23.3-3.8-37.8-8.8-55.4-19-7.2-4.2-7.2-4.3-5.4-6.3 1-1.1 4.1-3.8 6.8-5.9 10.3-7.8 12.1-9.7 10.8-11-.9-.9-4.3-.8-15.5.5-7.9 1-18.5 2.1-23.7 2.4-6.2.5-9.6 1.1-9.9 1.9-.2.8.5 1.3 1.6 1.3 1 0 4.5 1.7 7.8 3.8 3.2 2.1 8 5 10.6 6.5l4.8 2.8-4.6 6.2c-2.6 3.4-5.7 8.4-7.1 11.1-2.7 5.3-3.5 5.2-5.1-.9-.6-2.2-3.4-11.2-6.2-20-7.3-22.8-8.2-27.2-7-33.1 1.8-8.8 2.3-35.3.8-40.4-1.6-5.1-4.9-6.6-6.7-3.1zm4.3 5.2c.8 4.2.6 24.2-.3 29.9l-.7 4.5-.7-5.5c-.5-4.8-1.2-27.4-.8-30.8.2-2.4 1.9-1.2 2.5 1.9zM252 21.6c.6 1.4 1 9.1 1 17.2-.1 27.4-6.1 53.5-17.8 76.9-2.5 5.1-5 9.3-5.4 9.3-.4 0-.8-7.6-.8-16.8 0-24.7 5.2-60.7 10.5-72.8 2.9-6.7 9.2-16.4 10.5-16.4.6 0 1.5 1.2 2 2.6zm1083.4 47.2c-1.8 1.5-5.7 4.9-8.8 7.5l-5.5 4.8-3.8-2.4c-2.1-1.3-6-3.6-8.6-5.1-2.7-1.5-4.7-3-4.4-3.2.2-.2 6.8-1.1 14.8-1.9 7.9-.9 14.9-1.8 15.4-2 3.2-1.2 3.7-.1.9 2.3zm-217.9 7.9c0 5.8 0 5.8 4.8 9 2.6 1.7 7.2 3.7 10.2 4.4 5.2 1.1 5.5 1.4 5.5 4.2 0 4.2-4.1 10.8-8.8 14-7.4 5.2-20.6 4.9-26.8-.5-4.8-4.3-6.5-8-6.6-14.7-.1-7.3 2.6-13.4 8-18.4 3.6-3.2 4.9-3.7 9-3.7h4.7v5.7zm14 .4c3.5 3.1 6.5 7.7 6.5 10 0 1.7-6.7.2-12.5-2.9-3.9-2.2-5.1-3.4-5.6-5.9-.8-4-.5-4.3 4.2-4.3 2.9 0 4.7.8 7.4 3.1zm-457.9 9.2c2.8 3.3 3.1 6.3.7 7.5-1 .5-5.4 1.7-9.8 2.7-4.4.9-10.7 2.8-14 4.1-5.4 2.2-19.2 12.1-26.7 19.1l-2.6 2.5-.7-2.2c-1.1-3.3.4-10.9 3.1-16.2 7.1-13.9 20.2-21 38.2-20.5 8.9.2 9.5.3 11.8 3zm-352.8 18.6c.6 15-2.7 25.9-10.5 35l-3.7 4.4-.8-2.9c-2.6-9.8-1.7-26.5 1.9-35.7 2-4.9 6.8-8.9 10.2-8.5 2.5.3 2.6.6 2.9 7.7zm353-3.8c-1.3 2.2-6.5 8.5-11.6 14-11 11.6-16.9 15-27.2 15.6-5.3.4-7.1 0-9.7-1.6-1.8-1.1-3.3-2.4-3.3-2.9 0-2.1 21.4-19.2 27.8-22.2 2.3-1.1 7.3-2.7 11-3.5 3.7-.8 8.1-1.9 9.7-2.4 5.4-1.7 5.7-1.4 3.3 3zm-120.1 5.6c-.3 3.8-1.3 8.8-2.1 11.3l-1.5 4.5.2-10c.3-10 .8-12.5 2.9-12.5.7 0 .9 2.2.5 6.7zM405 104.4c0 1.4-5.7 6.2-6.5 5.4-.6-.6 4.5-6.8 5.6-6.8.5 0 .9.6.9 1.4zm-243.1 16.2c2.7 3.4 2.9 14.7.4 22-1.6 4.9-9.7 19.9-11.3 20.9-1.4.9-7.9-7.3-8.6-10.9-.3-2-.5-7.1-.3-11.4.4-7 .8-8.6 4-13.8 3.5-5.7 8.2-9.4 12.1-9.4.9 0 2.6 1.2 3.7 2.6zM52 194.9c0 2-9.5 9.2-14.8 11.1-8.2 3.1-12.7 3.7-21.4 3-8-.7-10.8-2-10.8-5 0-2.3 5.6-4.2 20.5-6.9 15.5-2.9 26.5-3.8 26.5-2.2z"/>
</svg>
