<svg xmlns="http://www.w3.org/2000/svg" version="1" viewBox="0 0 1737 416">
<path d="M705.7 3.9c-11 9.7-25.1 54.7-28.6 91.6-1.3 13.5.3 88.6 2.3 107.5.9 8.4 2.6 17.9 4.1 22.5l2.4 7.9-3.6 4.6c-8.7 10.8-22 21.6-32.8 26.6-8.6 4-20.5 6.1-27.8 5l-4.7-.7 4.7-3.2c2.7-1.8 6.1-5.4 7.8-8.1 3-4.9 3-5.1 3-19 0-12.2-.3-14.5-1.9-17.1-3.4-5.3-7-8.6-11.8-11.1-4.1-2.1-6.1-2.4-15.2-2.4-14.9 0-22.2 3.1-27.6 11.7l-2.8 4.3-1.2-2.9c-2.6-6.3-5.3-4.7-10 5.9-10.5 23.9-20.8 35.7-33.6 38.4-8.5 1.9-16.2-6.1-22.7-23.6-1.4-3.5-4-9.5-6-13.4-3.1-6.2-4.2-7.5-8.2-9.4-6.7-3.2-13-2.3-19.7 2.7-4.4 3.4-5.7 5.3-11.6 17.5l-6.6 13.8-3.8-7.8c-2.2-4.2-5.2-9-6.7-10.6-5.8-5.8-17.4-3.9-21.8 3.6-3.3 5.7-8.1 18-10.4 26.8-3.5 13.5-4.3 14-5 3.5-.8-12.4-3.6-30.9-5.6-37.3-1-3.5-2.8-6.3-5.1-8.3-3.1-2.7-4.1-3.1-7.8-2.6-6.4.7-15.9 5.6-25.2 13-4.6 3.7-9.1 6.7-10 6.7-1 0-2.9-2-4.3-4.3s-4.5-5.6-6.9-7.2c-3.8-2.6-5.2-3-11.2-3-5.7 0-6.8-.3-6.8-1.7 0-2.4-3.5-4.1-7-3.3-1.6.3-4.3 2.2-6.2 4.1-3.2 3.2-3.6 3.4-10.8 3.4-14.4 0-22.6 6.1-39.2 28.7-12.8 17.5-25.5 30.6-33.3 34.4-4.2 2-6.5 2.4-14.5 2.4-8.7 0-9.9-.3-14.4-2.9-12.6-7.4-18.7-16.9-20-31.1-1.6-16.4 4.1-32.2 15.8-44 8.4-8.4 16.2-13.2 23.6-14.2 7.1-1.1 6.5-2.7-1.1-3.1-16.5-.8-31.2 9.7-47.2 33.8-13.2 20-31.1 39.7-47.4 52.2-8.1 6.2-21.2 12-31.9 14-4.3.8-15 1.3-28.4 1.3-19.7 0-22.2-.2-29.5-2.4-9.4-2.7-18.7-6.8-24.1-10.5-4.4-3-5.4-3.2-5.4-1.2 0 2.8 14.6 10.3 27.8 14.3 7.4 2.2 11.1 2.6 25.4 3.1 26.6.7 42.2-1.9 57.6-9.7 16.4-8.3 41.2-33.3 56.9-57.3 8.5-13.1 19.9-25.7 26.3-29.2 2.8-1.5 5.4-2.5 5.7-2.2.4.3.1.6-.5.6-2 0-13.5 11.5-17.3 17.4-7.5 11.5-10.5 25.2-8.9 39.8 1.3 11.1 4.1 16.8 11.7 23.8 9.7 8.9 13.7 10.5 25.8 10.4 9 0 10.5-.3 15.5-2.8 3-1.6 7.4-4.5 9.8-6.4 5.7-4.7 17.3-18.6 27.3-32.7 7.4-10.5 12.3-15.4 21-20.9 3.2-2 11.5-3.6 15.1-2.9l2.7.5-2.4 4.8c-6.8 13.5-4.2 36 5.4 46.3 4.7 5.2 9.8 7.2 17.7 7 11.7-.2 20.7-6.2 25.8-17.2 1.8-3.9 2.1-6.5 2.1-16.8v-12.2l3-1.4c1.7-.8 5.9-3.9 9.5-6.7 7.5-6.1 19.1-12 23.5-12 6.1 0 9.7 6.8 11.5 21.8.6 4.8 1.5 10.5 2 12.7.5 2.2 1 7.3 1 11.3 0 8 1.1 11.2 3.8 11.2 2.4 0 4.3-4.3 7.7-16.6 1.5-5.4 4.4-13.5 6.4-18 3.1-6.6 4.4-8.3 7.3-9.7 8.6-4.1 13.4-1.1 19.3 11.7 5.4 11.7 6.6 11.6 12.4-.7 7.6-16.1 8.2-17.1 11.4-20.6 5.7-6 12.5-7.6 19.1-4.4 4.1 1.9 7.3 7.6 13.8 24.2 3.5 9.1 4.9 11.4 9.8 16.3l5.7 5.8h6.2c7.8 0 13.7-2.8 20.8-10.2 4.8-4.9 15.3-20.8 15.3-23.1 0-.6 1.4-4 3.1-7.6 2.6-5.6 3.2-6.2 4.1-4.7 1.2 2.1.7 8.4-1.6 20.6-1.4 7.4-1.6 19.2-1.5 87.5.1 43.4.4 80.1.8 81.4.4 1.4 1.1 2.6 1.8 2.8 2.1.7 4.1-50.7 4.9-125.7.7-65.1.4-62.2 6-69.7 1.3-1.7 4.8-4.3 7.8-5.7 4.8-2.3 6.8-2.6 15.6-2.6 14.2 0 20.5 3.2 25.1 12.7 2 4.1 2.3 6.2 2.2 15-.2 13.3-2.8 19.7-9.8 24.2-2.6 1.7-6 3.3-7.6 3.6-3.9.9-11.1-2.5-21.9-10.4-4.7-3.3-9.6-6.1-10.9-6.1-2.2 0-2.3.3-1.9 4.9 1 10.5 6.5 14 23.8 15.2 6.3.4 13.8 1.3 16.5 1.9 11.9 2.7 29.9-1.6 42.1-10.1 8.5-6 17.8-14.3 22.1-19.9 2.1-2.7 4-4.9 4.3-5 .3 0 1.8 2.5 3.3 5.5 7.8 15.9 21.2 22 36 16.5 6.1-2.3 13.9-9.7 19.5-18.7l3.3-5.2 4.2 2c8.6 3.8 19 1.2 28.3-7.3 10-9.2 14.5-21.9 18.5-52.1.6-4.8 1.5-8.7 2-8.7s.9 7.3.9 16.2c0 18.4 1.6 29 5.5 38.8 3.3 8 4.5 9.6 9.6 13.7 3.7 2.9 4.9 3.3 10.1 3.3 3.3 0 7.4-.7 9.1-1.5 3.5-1.7 9.4-6.8 11.8-10.2l1.6-2.3 3.8 2c4.8 2.4 14 2.7 19.2.5 6.1-2.6 10.1-6.3 17.3-15.9 7.2-9.7 12-14.5 17.2-17.2l3.1-1.6-2.3 3.2c-4.9 6.8-7 13.9-7 23.6 0 11.4.9 12.9 7.4 12.2 7.3-.9 11.4-4.3 16.9-14.2 8.1-14.5 11.4-25.1 14.1-45.1 1.3-9.5 1.4-9.7 1.5-4 .7 29.2 13.3 48.1 41.6 62.2 10.9 5.5 27.9 10.9 40 12.7 5.5.8 15.2 2.3 21.5 3.3 8.7 1.4 17.1 1.8 34.5 1.8 21.8 0 23.3-.2 28.8-2.4 13.6-5.4 30.2-26.7 38.8-49.6 1.1-3 2.8-6.4 3.8-7.7 1.8-2.1 1.8-1.9 2.4 12.3.6 15.4 2 21.8 6.2 27.9 3.6 5.2 5.9 6.3 10 5 4.5-1.5 13.6-11.5 17-18.7 1.5-3.1 4.2-7.8 6-10.4l3.2-4.7 2.2 7.6c2.4 8.3 9.3 19.8 13.8 22.7 3.5 2.3 8.2 1.2 12.2-2.9 3.3-3.4 10.8-19.3 11.7-25 .3-1.7 1-4.3 1.6-5.8l1-2.8 4.2 3.5c7.9 6.4 11.5 7.5 26.5 7.5 14.3 0 20.6-1.1 30.5-5.5 3.1-1.4 6.1-2.5 6.6-2.5s-.6 2.2-2.5 5c-4.5 6.6-5.8 11.2-5.3 17.6.5 6.1 2.9 9.3 8.8 12.4 7.8 4 24.6 5.2 33.9 2.4 10.3-3 18.3-13.5 19.7-25.6.6-5.4.8-5.6 3.9-6.2 19.7-3.7 39.8-16.2 54.2-33.9 3-3.7 6.1-6.7 6.8-6.7 1.8 0 9.9 8 12.1 12 1.6 2.9 2 6.4 2.5 21 .5 15.9.8 18 3.1 23 2.9 6.5 10.7 14.5 15.7 16.2 2 .7 7.9 1.2 13.1 1.2 11.2 0 21-3 29.6-8.9 6.5-4.5 17.3-14.9 24.2-23.3l5.2-6.3v9.5c0 7 .3 9.6 1.3 9.6.6 0 3.9-6.3 7.1-14 3.3-7.7 6.3-14 6.7-14 .4 0 4 2.5 8 5.5 11.3 8.5 30.1 17.9 46.6 23.5 22.2 7.4 64.2 8 83.7 1.1 6.4-2.3 29.1-13.9 34.1-17.5 4-2.8 12.8-8.1 14.8-8.9 1-.4 1.7-1.1 1.7-1.7 0-1.3-4.3-1.3-5.6-.1-1.7 1.8-18.8 12.2-27.9 17.1-18.6 10.1-31 12.9-55.7 13-27 0-43.6-3.9-68.3-16.1-12.6-6.2-28.3-16.7-29.2-19.5-.5-1.4 5.1-9.6 11-16 3.1-3.4 7.4-6.7 11.1-8.6 12.4-6.2 19-12.8 15.8-16-1.5-1.5-6 1.2-14.4 8.6-4 3.5-9.1 7.2-11.3 8.3-4.9 2.5-14.5 5.7-15.1 5-.2-.2.5-4.2 1.6-8.8 3.4-14.1 4.9-37.4 5-78.5.2-30.9-.1-37.9-1.1-37.9-1.5 0-2.6 8.3-7.8 58-2.7 25.8-8 69.7-8.5 70.2 0 .1-1.2.4-2.6.7-2.1.6-4.2-.8-13.4-8.9-10.5-9.2-14.2-11.5-16.6-10-.5.3-1.9 2.4-3.1 4.6-1.6 3.1-1.9 5.5-1.7 11.2l.3 7.2 4.5.8c4.3.8 20.1.2 24.6-.9 1.4-.4 3.1.3 4.9 1.8 2.8 2.4 2.8 2.5 1.7 8.8-1 5.2-2.1 7.5-6.7 13.5-3 3.9-8.9 10.6-13.2 14.9-14.8 14.8-25.9 20.1-42.3 20-11 0-13.5-1-19.7-7.7-6.7-7.3-8.3-13.1-8.3-31.1 0-14.9-.1-15.5-2.8-20.7-3-5.7-11.9-13.9-15.2-13.9-1.2 0-4.5 3-8.5 7.7-13.1 15.6-25.7 24.6-41.7 29.8-5.9 1.9-11.6 3.5-12.7 3.5-1.3 0-2.4-1.4-3.7-5.2-3.2-8.8-13.7-14.8-25.9-14.8-5.6 0-9.8 2.3-11 5.9-.6 2.1-7.3 5.5-17.5 9-3.6 1.3-9 3.2-12 4.4-4.5 1.7-8.3 2.2-20.7 2.5-14.3.4-15.6.2-20-1.9-2.6-1.3-6.7-4.2-9.1-6.6-4.9-4.9-5.7-5.2-6.5-2.1-4.7 18.3-9.5 30.1-14.2 34.5-1.9 1.8-4.3 3.3-5.3 3.3-1.9 0-6.1-4-10.4-10-2.8-3.7-6.8-15.9-6.8-20.4 0-2.1-.5-2.6-2.4-2.6-2.7 0-4.1 2-11.6 16.3-4.4 8.5-10.7 16-15.3 18.4-2.8 1.4-3 1.4-6.1-1.6-5.2-5.1-6.9-12-7.5-31.1-.6-15.4-.7-16.5-2.5-16.5-2 0-5.6 6.2-13.8 24-8.3 18.1-22.2 34.1-32.8 38-4.9 1.8-8 2-28 2-16.8 0-25.4-.5-34-1.8-6.3-1-16-2.5-21.5-3.4-25-3.8-51.2-16.2-63.7-30.2-6.5-7.2-11.7-17.8-13.4-26.9-.9-5.5-1.3-17.7-1.4-42.8 0-33.6-.6-41.4-3.1-41.4-2.2 0-2.7 5.9-3.2 36.5-.3 24-.9 35.7-2 42.8-.9 5.4-1.9 10.3-2.2 10.8-.4.5-1.6 0-2.7-1.1-3-2.7-11.2-2.7-15.3 0-1.6 1.1-3.9 2-5 2-4.9 0-14.3 8.2-22.6 19.7-6.7 9.1-13.5 14.9-18.6 15.9-5 .9-14.2-.1-15.8-1.7-1.3-1.2-1.1-2.2 1-7.4 2.1-5.1 2.5-7.6 2.5-17.1 0-9.5-.3-11.3-1.8-12.7-6.4-5.8-12 5.3-10.9 21.4.3 4.2 1.2 9 2.1 10.8 2 3.7 1.4 5-4.1 10.2-6.3 6-8.3 6.9-14.5 6.9-5.3 0-6.2-.3-9.9-3.8-9-8.1-12.9-22.8-12.9-49.3v-16.7l23.8-4.6c28.5-5.6 42.7-7.6 54.5-7.6 6.6 0 8.8-.3 8.5-1.3-.7-1.9-14.2-2-27.8-.2-6.5.8-22.2 3.5-34.8 6-12.6 2.5-23.2 4.5-23.6 4.5-.3 0-.6-6.9-.6-15.3 0-14.2-.8-19.2-2.7-17.3-.7.7-1.9 9.1-3.9 27.3-.8 7.1.1 6.5-12.8 8.7-4.9.9-9.4 2-9.9 2.5-1.9 1.9 1.4 2 11.2.3 5.5-1 10.1-1.6 10.1-1.2 0 4.6-3.6 26.6-5.5 33.3-4.8 16.9-10.8 25.2-22.2 30.4-6.7 3.1-14.2 2.9-17.6-.5-1.9-2-2-2.5-.9-7.2 1.6-6.8 1.6-25.6 0-26.6-.6-.4-2.1.5-3.5 2.1-2.4 2.7-2.5 3.2-2.2 17.4.3 14.5.3 14.6-2.6 19.6-1.6 2.7-5.6 7.7-9 11-6.7 6.7-10.8 8.5-19.7 8.5-9.1 0-17.6-6.9-23.2-19l-2.4-5.2 3-5.1c13.9-23.6 22.5-53.5 25.8-90.2 1.3-13.8.7-103.4-.7-123.1-1.1-14.4-4.5-17.7-11.6-11.5zm7 1.3c1.6 2.5 2.3 21.2 2.9 71.8.5 43.1.3 53.9-1 65.9-2.5 22.8-8.1 47.3-14.3 63.1-3 7.5-11.3 23-12.4 23-.4 0-1.6-3.9-2.7-8.8-3.4-14.3-5.2-43.8-5.4-87.2-.2-42.8.3-49.4 5.8-71.8 3.3-13.3 11.5-37.5 15.5-45.5 4.8-9.5 9.5-13.8 11.6-10.5zm836.4 92.4c.2 35.4-4.8 72.4-9.8 72.4-1.2 0-1.4-.7-1-3.8 2-12.4 9.7-81 9.7-85.7 0-1 .2-1.6.5-1.3.3.3.6 8.6.6 18.4zm30.4 55.4c-2.1 1.6-4.1 3-4.4 3-1.1-.1 5.9-6 7.1-6 .6 0-.6 1.3-2.7 3zm-64 10.5c5.2 4.4 9.4 8.3 9.4 8.7.1 1-14.4 2.1-19.6 1.5-2.5-.3-4.9-1.1-5.4-1.8-2-3.1 2.1-17.3 4.8-16.7.8.2 5.6 3.9 10.8 8.3zm-712.8.2c-.3 1-.5.4-.5-1.2 0-1.7.2-2.4.5-1.8.2.7.2 2.1 0 3zm750.9 8.7c-2.4 3-5.2 6.8-6.2 8.5-2.1 3.5-2.3 3.6-4.9 1.7-1.7-1.2-1.7-1.7-.6-5.9 1.3-4.5 1.4-4.6 8.5-7.1 3.9-1.3 7.2-2.5 7.4-2.5.1-.1-1.8 2.3-4.2 5.3zm-14.3 2.6c-.3 1.1-.9 2.3-1.4 2.6-1 .6-1.2-2.9-.2-3.9 1.3-1.3 2.1-.7 1.6 1.3zm3.7 12.5c0 1.2-7.9 19.8-8.7 20.5-1.6 1.5.8-15.1 2.8-19.2 1.9-4.1 2.4-4.5 4.1-3.5 1 .7 1.8 1.6 1.8 2.2zm-212.5-1c-5.1 1.9-6 1.9-4.5 0 .7-.8 2.8-1.5 4.9-1.5l3.6.1-4 1.4zm20.2 4.1c3.1 2.4 7.2 10.8 5.9 12.2-1.3 1.2-20.8 1.5-24.8.3-4.2-1.3-7.8-4.6-7.8-7.2 0-2 3.8-2.9 11.7-2.9 5.2 0 5.5-.2 6.6-3 1.3-3.5 3.1-3.3 8.4.6zm-11.2-1.6c-.3.5-2.5 1-4.8.9-3.3 0-3.8-.2-2.2-.9 2.8-1.2 7.8-1.2 7 0zm-484.3 9.1c.7 8.6.2 12.7-2.4 18.9-1.8 4.2-2 4.3-3.1 2.5-.7-1.2-1.2-6.4-1.2-13 0-9 .3-11.6 1.8-13.9 2.8-4.2 4.1-2.7 4.9 5.5zm75.2-4.9c1.8 2.9 0 3.1-5.6.4l-5.3-2.6 4.9.2c3.3.2 5.2.9 6 2zM925 197c2.2 1.1 4.6 2 5.5 2 2.4 0 1.9 1.8-3.9 13.5-6.7 13.5-10.7 17.8-16.8 17.9l-4.2.1-.8-5.5c-1.3-8.7 1.5-18.2 7.9-26.8 2.9-3.8 6.4-4.2 12.3-1.2zm397.5 2.6c3.2 6 6.1 6.9 21.8 6.9h13.7v2.6c0 10.6-9.1 22.5-18.9 24.9-6.7 1.6-21.7.8-28.3-1.5-2.6-.9-5.9-3-7.3-4.7-7.7-9.1 3.2-30.6 16-31.7.6-.1 1.9 1.5 3 3.5zM750.2 219c-.6 4.4-.7 4.4-1.3-2.5-.4-3.9-.4-8.1-.1-9.5 1-3.8 2.1 6.4 1.4 12zm-430.4 6.2c-.3 2-1 2.3-4.8 2.6l-4.5.2 2.8-2.5c3.6-3.2 7-3.4 6.5-.3zm18.4 5.1c3.4 2 9.8 9 9.8 10.7 0 .9-5.1 2-9.4 2-8.4 0-16.6-5.2-16.6-10.5 0-2 .8-2.9 3.3-4 3.8-1.7 7.8-1.1 12.9 1.8zm-18.8 4c1.4 7.6 11.3 12.3 23.4 11.3l7.2-.7v9.3c0 10.9-.9 14.7-5 21.1-4.1 6.5-10.5 10.4-18.4 11.2-14 1.5-22.3-6.9-25.7-25.9-1.5-8.7.2-18.7 4.2-25 2.8-4.5 2.9-4.6 8.3-4.6 5.3 0 5.4 0 6 3.3zM570.1 337c-.6 11.4-.8 4-1-35.1 0-27.3.2-51.8.7-54.5 1-7 1.4 72.1.3 89.6zm20-77.9c2 1.6 5.6 4 8 5.5l4.4 2.6-6-.5c-9.4-.7-15.5-5.4-15.5-11.9 0-2 .1-2 2.8-.3 1.5 1 4.3 3.1 6.3 4.6z"/>
</svg>
