<svg xmlns="http://www.w3.org/2000/svg" data-name="Layer 1" viewBox="0 0 3772.5 602.7">
<path d="M2640.08 461.88c-6.88 5.05-12.71 9.38-18.6 13.61a13.41 13.41 0 0 1-4.4 2.32c-6.83 1.65-14 3.62-19.91-1.89-5.64-5.24-6.81-12.26-4.54-19.38a123.9 123.9 0 0 1 7.12-16.37c1.85-3.78 4.21-7.31 6.34-10.95l-1.63-1.46c-4.15 3.92-8.71 7.5-12.38 11.83-7.63 9-16.71 15.72-26.8 21.93-13.32 8.2-26.27 16.8-40.88 22.59-12.17 4.82-23.73 8.76-37.41 3.08-14.72-6.13-22.12-21.76-16.22-37.81 2.11-5.75 4.69-11.34 7.67-18.46-7.65 1.19-13.05 2.83-18.34 5.79-15.09 8.45-29.88 17.77-45.79 24.33-18.95 7.83-38.89 13.28-58.49 19.5-9.49 3-19.1 5.69-28.77 8.08a135.89 135.89 0 0 1-19.6 3.47c-13.23 1.27-26.5 2-39.75 3-15.25 1.12-30.48 2.46-45.74 3.31-7.62.43-15.32-.49-22.93 0-11 .74-21.86 2.07-32.74 3.47-21.83 2.79-43.65 2.49-65.54.76-8.93-.7-17.95-.3-26.93-.44a16 16 0 0 1-5-.36c-15.27-5.31-31.58-4.37-47.09-7.91-10-2.27-20-5-29.25-9.27-12.27-5.68-21-16-29-26.76-.93-1.24-1.8-2.52-3.14-4.4-1.16 1.85-2.16 2.84-2.44 4-3.06 12.67-11.67 21.76-20.84 29.86-11.73 10.37-25.66 13.51-40.88 7.86-3.43-1.28-7-2.1-10.33-3.68-8.47-4.06-15.59-9.27-20.78-17.82-6.34-10.44-14.41-19.86-22.06-29.47-4.12-5.19-12.76-6.31-17.93-1.94a41.21 41.21 0 0 0-9.92 12.25c-4.28 8.25-7.22 17.19-11.31 25.55a48.76 48.76 0 0 1-8.82 13c-5.77 5.8-10.78 3.89-12.51-4.11-3.08-14.27-6.39-28.49-9.07-42.83-1.11-6-4.94-9.4-9.34-12.27-1.79-1.16-5.23-1.1-7.33-.21-3.94 1.66-7.49 4.27-11.12 6.62-3.07 2-5.9 4.36-9 6.2-9.18 5.37-17.87 11.15-25.75 18.57-16.4 15.42-35.65 25.18-58.91 25.21-2 0-4.33 1.4-6.11 2.69-12.42 9-28.57 4.81-34.59-9.15-1.84-4.28-4-8.53-5-13a28 28 0 0 1-.14-11.75c1-4.51 4.57-7.36 9.27-8s7.24 2.2 9 6.25c2.45 5.54 5.82 10.33 11.9 12.5 6-11.29 3.3-36.87-5.55-50.22-6.64 7.07-13 14.1-19.7 20.83a97.05 97.05 0 0 1-10.67 8.91q-15.93 12-32 23.77c-2.39 1.76-4.84 4.09-7.57 4.62-13.63 2.68-25.41 9.68-37.78 15.32-3.28 1.49-6.87 2.94-10.39 3.13-6.77.37-11.35-3.64-13.7-9.69-2.74-7.08-4.92-14.38-7.71-22.69-2.44.33-5.45.18-8 1.18-15.94 6.26-32.16 10.11-49.52 10.05-15.24-.05-30.48 1.87-45.73 2.73-6.51.36-12.28 1.94-17.5 6.21-8.34 6.83-18.19 11-28.49 13.85-18.84 5.19-28.69-6.35-31.74-20-2.55-11.37-.11-22.52 1.88-33.67.34-1.89.69-3.77 1.32-7.19-10.88 1.63-21.27 1.18-30.35 6.35a196.52 196.52 0 0 0-23 15.58c-16.55 12.85-32.86 26-49.1 39.26-8.82 7.18-19.18 9.07-29.94 9a125.61 125.61 0 0 0-40.18 6.54c-7 2.29-13.4 1.35-18.29-4.2-5.21-5.9-9.79-12.35-15.36-19.46a40.66 40.66 0 0 0-3.52 5.23c-2.66 5.35-4.64 11.08-7.69 16.19-5.85 9.79-21.09 15.63-32.27 13.08-3.56-.81-5.44-2.44-6.69-6.24-4.08-12.41-2-24.19 2.28-35.94 1.57-4.36 3.27-8.67 5.47-14.51-9.18.2-15.1 4.3-20.37 9.74a17.82 17.82 0 0 0-2.68 4.19c-7.19 13.82-18.24 23.42-32.06 30.32-5.31 2.65-10 6.49-15.09 9.65-3.08 1.92-6.13 4.33-9.53 5.2-13.4 3.42-25.14 10.42-37.16 16.76-6.61 3.48-13.61 4.73-20.81 6.32-33.14 7.33-67 6.65-100.43 7.77-26 .87-51.59 4.75-77.43 6.55C697.4 568 645.77 574 594 578.62c-12.56 1.12-25.27.46-37.88 1.29-26.57 1.74-53.11 4-79.68 5.88q-61.31 4.26-122.62 8.18c-3.64.24-7.33-.28-11-.11-19.29.91-38.55 2.13-57.84 2.85-21.94.82-43.89 1.22-65.83 1.82-11 .3-21.94.78-32.91 1-20 .3-39.94.85-59.89.5-15-.26-29.89-2.12-44.85-2.6-10-.32-20 .78-29.94.8-7.26 0-14.53-1.13-21.78-1a78.33 78.33 0 0 0-15.45 2.34c-2.88.64-5.48 2.78-8.34 3.14-1.81.23-4.93-1.13-5.56-2.6-.87-2-.5-5.05.45-7.15.68-1.5 3.06-2.63 4.89-3.16 9.25-2.67 18.33-5.61 28.37-4.29 7.16.94 14.56 0 21.85 0 16.65 0 33.29.09 49.94 0 30.93-.08 61.86-.31 92.79-.33 13 0 25.94 1 38.87.42 22.29-1 44.54-2.86 66.81-4.12 12-.68 23.94-.72 35.91-1.25q34.38-1.51 68.76-3.3c20.6-1.11 41.19-2.43 61.77-3.76 10-.64 19.89-1.76 29.85-2.25 25.24-1.25 50.5-2.1 75.74-3.42 22.59-1.18 45.19-2.49 67.75-4.27 14.53-1.15 29-3.39 43.49-4.87 18.2-1.86 36.41-3.6 54.64-5.1 31.49-2.58 63-5.29 94.51-7.24 18.58-1.15 37.4.44 55.83-1.7 19.3-2.24 39-3.88 56.82-13.85 8.61-4.82 18.46-7.45 27.78-11 1.55-.59 3.45-.49 4.79-1.35 14.55-9.25 29.34-18.18 43.32-28.25 4.52-3.26 7.37-9.32 10-14.59a20.61 20.61 0 0 1 10.27-10.22 93.84 93.84 0 0 1 41.64-8.65c8 .1 12.41 5.43 17.85 11.55 1-2.87 2-4.8 2.21-6.8 1.22-14.83 5.49-29.35 3.41-44.58-.76-5.57 1.69-11.58 2.65-17.39.26-1.52.9-3.17.56-4.56-3.13-12.73-.75-25.07 2.51-37.34.79-3 2-5.79 7.36-5.35.14 3.22.89 6.71.31 10-2 11.23-2.55 22.25-.62 33.7 1.3 7.7-.13 15.92-.79 23.86-1.44 17.49-3.25 34.95-4.75 52.43-.67 7.74.09 15.34 4 22.31 3.56 6.4 8.42 10.57 17.07 8.29 16.11-4.25 32.63-5.51 49.37-5.22 4.85.08 10.37-2.71 14.53-5.67 16.29-11.55 32.13-23.73 48.19-35.61 10.39-7.67 19.7-17 32.48-21 6-1.87 11.9-4.08 18-5.7 8.22-2.2 16.12-5.32 24.12-7.94 14.25-4.67 28.6-3.53 43.32 3 16.55 7.35 19.51 19.22 18 34.68-.25 2.58-.13 5.19-.17 7.55 7.41 2.31 38.67 1.33 54 0 18.18-1.57 34.73-8.13 50.24-13.86 5.59-10.9 10.2-21.24 16.06-30.8 3.39-5.53 8.42-10.26 13.41-14.53s10.59-3.53 15.67-.1c5.26 3.55 5 8.76 3.4 13.39-4.22 12.37-8.94 24.68-23.39 28.94a5.77 5.77 0 0 0-.88.47c-13.54 6.78-16.74 15.47-10.76 29.23 2.44 5.61 6.26 7.72 11.93 5.34 16.53-6.95 34.28-12.21 49-22 19.15-12.81 39-25.53 53.37-44.44 2.35-3.11 3.91-6.83 5.72-10.32s2.77-7.68 8.92-8.48c8 10.87 11.08 24.13 13 37.32 1.94 13.37 1.71 27.06 2.5 41.95 3.71.33 8 1.65 12 .89 14.13-2.7 27.87-6.58 38.5-17.29a129.84 129.84 0 0 1 33.65-24.8c5.27-2.66 9.63-7.07 14.7-10.22 14.61-9.07 25.65-4.61 31.64 11.78 4.23 11.59 9.23 22.87 9.6 35.48a5.68 5.68 0 0 0 1.19 2.69c.32.48 1 .7 2.78 1.8 1.91-4.12 4.2-8 5.57-12.17a83.52 83.52 0 0 1 18.28-30.64c9.59-10.45 28-8.18 36 3.43 8.45 12.29 18 23.82 27 35.72 2 2.6 3.67 5.41 4.85 7.16 5.08.57 9.75 1 14.39 1.64 5.23.67 10.45 2.08 15.67 2.05 7.18 0 13-3.5 18.8-8 18.15-14.18 20.26-34.45 21.32-54.82.7-13.56-.68-27.24-1.21-40.86 0-1.26-.64-2.5-1.23-4.62-3.71.38-7.27.69-10.81 1.14-3.37.44-7.22 1.19-8.43-3-1.33-4.61 2.37-6.38 6-7.71 2.19-.8 4.39-1.59 6.63-2.22 7.6-2.13 8.32-2.89 8.36-10.93 0-9.33-.28-18.66-.09-28a54.23 54.23 0 0 1 1.74-12.81c.48-1.79 2.87-3.07 4.39-4.58 1.45 1.55 3.88 2.94 4.17 4.69.7 4.2.51 8.57.46 12.86-.14 11.25-.39 22.49-.63 35.09 5 .09 8.78.28 12.6.18 2-.05 4.09-1.26 5.85-.82 2 .49 5.11 2.39 5 3.46-.17 2.16-1.71 5.25-3.52 6-4.19 1.81-8.9 2.36-13.35 3.64-4 1.15-5.88 3.92-6 8.16-.49 18.32-1.21 36.61 2.08 54.81 2.09 11.57 7.25 20.53 16.51 28.41 14.9 12.69 32 18.16 50.77 20.38 10.57 1.25 21.07 3.24 31.67 4.17 11.88 1.05 23.84 1.28 35.77 1.87 4.32.22 8.66.32 13 .68 15.7 1.34 31.17-.5 46.72-2.41 14.19-1.75 28.53-2.42 42.83-3.16 17-.88 34-.88 50.87-2.08 21.23-1.5 42.55-2.87 63.54-6.12 15.7-2.43 31.22-6.92 46.31-12 18.23-6.13 36.19-13.26 53.78-21.06 16.07-7.14 31.29-16.17 47.26-23.57a78.51 78.51 0 0 1 33.93-6.93c12.25.07 21.14 5.32 27.14 15.36 1.46 2.44.1 6.56.05 9.59-6.66 2.48-10.32.28-13.69-4.36-7.8-10.76-17.52-11.05-25-.38a77.65 77.65 0 0 0-9.45 18.61c-3.48 9.8 2.65 20.08 12.91 23.59 9.16 3.13 18.05 1.38 26.24-2.47 12.62-5.94 24.81-12.82 37.14-19.37 15.85-8.41 27.6-21.77 40.63-33.6a136.46 136.46 0 0 1 17.18-13.41c7.81-5.1 12.16-3.6 16.88 4.4a22.56 22.56 0 0 0 4.39 5.12c4.29 3.87 8.74 7.56 14.05 12.13-.89.26.23.25.89-.31 2.22-1.9 5-3.46 6.9-.76a10.84 10.84 0 0 1 1.27 8c-1.16 4.45-3.92 8.46-5.21 12.88-1.75 6 0 9 6.18 10s12.59.85 18.9 1c22.24.4 22.05.15 38.72-14.67 9.32-8.28 16.28-17.69 17.9-30.2a23.06 23.06 0 0 0-1.47-11.34c-1.77-4.23-3-8.29-1.22-12.46a7.68 7.68 0 0 1 4.94-3.84c1.3-.26 3.73 1.46 4.51 2.91q9.66 18 18.84 36.27c3 6 2.73 12.24.34 18.41q-1.62 4.18-3.47 8.28c-4.61 10.21-4 13.75 6.52 16.21 18 4.21 36.43 10.05 55.09 4.19 11.68-3.67 22.76-9.29 34.08-14.1 4.28-1.82 5-5.9 5.84-9.85a134.83 134.83 0 0 1 12.54-33.51c8.29-16 22.71-21.66 38.65-25.12 6-1.3 12.45 4.15 14.69 11.06 5.06 15.62-.94 30.46-15.36 39-10 5.93-19.79 12.27-29.62 18.51-1 .64-1.67 1.84-3.56 4 4.27.9 7.34 1.94 10.46 2.14 17 1.09 33.94 3.11 50.86 2.68 31.9-.81 64-1 95.13-9.51 18.54-5.09 37.4-6 56.41-6.25 21-.25 42-1 62.94-.79a309.68 309.68 0 0 1 37.62 2.8c21.17 2.83 42.31 4.51 63.71 4 13.27-.32 26.57 1.27 39.86 1.48 14.65.24 29.31-.15 44-.22 25.63-.13 51.28.07 76.91-.43 25.3-.49 50.59-2.39 75.89-2.38 34.88 0 69.73-.13 104.62 2.79 31.13 2.6 62.54 2.32 93.83 2.52 25.64.16 51.28-.81 76.92-1.38 3.55-.08 7.39 0 8.09 3.92.52 2.92-.47 6.5-1.9 9.21-.76 1.46-3.86 2.39-5.88 2.36-11.94-.18-23.91-1.57-35.79-1-39.66 2-79.28 1.06-118.89-.83-23.92-1.14-47.77-4.46-71.68-4.8-33.27-.48-66.56 1.1-99.84 1.44q-62 .61-123.89.58c-22.3 0-44.63-1.93-66.88-1.07-29.55 1.13-58.38-3.62-87.42-7.41-7.17-.93-14.6-.16-21.9.07-27.61.85-55.23 1.67-82.83 2.82-5.91.24-12.21.78-17.57 3-13.91 5.74-28.57 6.5-43.11 7.62-19.57 1.52-39.24 3.07-58.83 2.73-20.55-.35-41.07-2.84-61.58-4.59a14.79 14.79 0 0 1-7.47-2.55c-5.19-4-10.16-3.89-15.79-1.1-5.05 2.5-10.71 3.87-15.56 6.66-13.7 7.86-28.64 9.15-43.59 7.33-12.78-1.55-25.44-4.87-37.82-8.52-10.93-3.23-13.55-9.2-10.33-19.91 1-3.16 2.68-6.08 4.05-9.12 5.58-12.44 4.83-16.15-5.81-26.66-1 1.3-2.3 2.41-2.76 3.79-4.44 13.5-13.65 23.38-24.19 32.28a5.34 5.34 0 0 0-.77.64c-14 16.15-15.16 12-34.5 12.26-4.31.06-8.63.08-12.94 0-10.44-.03-20.33-1.05-27.04-10.58zM1337.84 432.2c-8.76-1.23-12.25-.31-13.54 5.2-2.47 10.58-4.66 21.34-5.51 32.15-.38 4.86 2.53 10.09 4.42 15a8 8 0 0 0 4.16 3.89c9.7 3.92 25.89-1.81 32.18-11.53-18.86-8.91-21.21-26.07-21.71-44.71zm1530.6 21.8c3.9-1 6.75-1 8.8-2.28 11.2-7.07 22.43-14.12 33.19-21.83 6.66-4.78 7.73-15.87 3.16-22.51-2-3-4.33-4.61-8.33-3.46-10.68 3.06-20.89 6.45-25.89 17.86-2.77 6.34-6.62 12.23-9.1 18.66-1.46 3.81-1.18 8.25-1.83 13.56zm-1784.9 12.88c-3.36 2.66-6.86 4.65-9.34 7.52-8.49 9.83-9.2 22.44-11.28 34.44-.7 4 2.62 6.7 7.14 6 8.44-1.34 16.12-4.36 20.43-12.47 3-5.57 5.49-11.35 8.35-17 1.6-3.15 1-5.68-1.52-8-2.2-2-4.18-4.27-6.52-6.1a73.59 73.59 0 0 0-7.26-4.36zm1558.31-24c-3-2.19-5.43-3.91-7.83-5.61-13.07-9.22-13.68-9.19-23.05 4-4.19 5.91-8.55 11.81-8.7 19.64-.12 6.3 2 8.61 8.23 7.6a22.66 22.66 0 0 0 8.4-2.83c9.01-5.62 17.1-12.37 22.95-22.78zm-1276.42-14.8c-10 .81-6.14 9.8-9.85 13.71l-7.19 1.58c.66 3.52.89 6.51 1.79 9.27 2.8 8.61 8.33 14.07 17.77 15.11 6 .67 8.93-.46 11-6 3.07-8.28 2.55-16.27-3.42-23.22-3.18-3.64-6.73-6.97-10.1-10.45zM1516 417.61c2.31 10.07-10.75 15.73-9.49 26.74 14.08-3.21 22.68-12.2 24.4-24.84.47-3.45-1.3-4.94-4.7-4.24-3.21.65-6.36 1.45-10.21 2.34zm97.26 42.93c-.66 10.26 2.31 17.63 7.78 23.38 2.59 2.72 7.55 3.36 11.58 4.43 1.09.29 3.75-1.21 3.82-2.05a7 7 0 0 0-1.76-5c-2-2.07-4.9-3.31-7-5.36-4.49-4.48-8.68-9.26-14.43-15.4z"/>
<path d="M1902.55 408.48v2c0 3.33.16 7.39-4.17 7.68-4.08.27-3.9-3.89-4.21-6.65-1-9.29-2.67-18.21-8.7-25.91-1.1-1.4.24-4.71.46-7.13 2.39.27 5.4-.26 7 1a16.83 16.83 0 0 1 5.77 7.73c2.08 6.89 3.26 14.05 4.8 21.1zM1114.84 371.16c-2.95 25.7-9 52.25.07 77.42.65 1.81 3.55 1 2.9-.79-8.94-24.91-2.89-51.21 0-76.63.22-1.91-2.78-1.89-3 0zM1351 449.2a31 31 0 0 0-2.84 18.51l2.89-.8a61.74 61.74 0 0 1-3-17.57 1.5 1.5 0 0 0-3 0 56.7 56.7 0 0 0 1.25 13.82c.43 1.74 2.8 1.21 3-.4a78.07 78.07 0 0 1 2.24-12.78h-2.89a22.31 22.31 0 0 1 1.44 8.21 1.51 1.51 0 0 0 3 .4l2.9-8.25-2.89-.8a169.5 169.5 0 0 0-1.87 21.45l2.8-.75a18.5 18.5 0 0 1-1.58-10.8l-3-.4a32.57 32.57 0 0 0 .3 7.95c.27 1.72 2.9 1.23 2.95-.4l.2-7.4c.06-1.93-2.94-1.93-3 0l-.2 7.4 3-.4a29 29 0 0 1-.2-7.15c.15-1.67-2.69-2.08-2.94-.4a22.19 22.19 0 0 0 1.88 13.11c.66 1.42 2.76.63 2.79-.76a164.2 164.2 0 0 1 1.76-20.65 1.5 1.5 0 0 0-2.89-.8l-2.9 8.25 2.94.4a24.48 24.48 0 0 0-1.55-9 1.51 1.51 0 0 0-2.89 0 84.48 84.48 0 0 0-2.35 13.57l2.94-.39a53.81 53.81 0 0 1-1.14-13h-3a64.51 64.51 0 0 0 3.12 18.37 1.5 1.5 0 0 0 2.89-.8 27.61 27.61 0 0 1 2.54-16.2c.84-1.73-1.75-3.25-2.59-1.51z"/>
<path fill="#fff" d="M1767.63 102.72l.24.14.19-.25-.48-.06c.02.06.03.12.05.17z"/>
<path d="M1767.87 102.87l.19-.26-.48-.06z"/>
<path d="M3492.82 132.57c-15.1.13-30.2-.43-45.3-.35-8.05.05-16.1 1.12-24.16 1.2-28.72.27-57.44.58-86.16.32-14.68-.13-29.35-1.49-44-2.17-3.47-.15-7 .25-10.45.35a104.45 104.45 0 0 1-11.32.21c-9.71-.74-19.37-2.16-29.08-2.61-12.49-.57-25-.46-37.52-.64-4.56-.06-9.13-.19-13.69-.12-7 .1-14.07 1.27-20.91.38-19.51-2.53-39.05-2-58.61-2.17-27-.27-54-1-81-1.49q-35-.67-70-1.33c-4.84-.08-9.68 0-14.52 0-3.72 0-7.45.2-11.16 0s-7.66-1.13-11.49-1.14c-10.85 0-21.69.38-32.54.41-17.23 0-34.46-.32-51.69-.1-22.82.3-44.82-7.48-68-5.25-19.78 1.89-39.91-.21-59.85.44-20.51.66-39.29-6-58.29-12-2.18-.68-4-2.49-6.77-4.27 4.82-5 10.19-8.88 13.23-14.11 4.57-7.9 8.87-15.74 14.6-23 7.35-9.34 1.58-20.17-10.23-21-10.47-.78-20.22 2.23-26.56 10.18-9.81 12.3-19.65 25.26-15.8 42.9 1.1 5-1.17 8.14-5.93 9.52a78.65 78.65 0 0 1-8.15 2c-13.8 2.49-27.76 4.28-41.36 7.57-8.07 2-15.46 1.55-22.53-1.89-9.77-4.77-19.31-10.08-28.64-15.68-2.83-1.7-5.14-4.85-6.72-7.85-1.33-2.53-2.46-6.26-1.54-8.63 1.48-3.81 5.61-3.21 9.25-2.62 9.68 1.55 19.4 2.92 29 4.35 5.33-8.5 5.31-10.49-.39-12.33-6.67-2.14-13.37-4.2-20.15-6-13.1-3.4-25.19-2.84-34 9.5-.77 1.08-2.21 1.69-3.35 2.51-8.66 6.27-15.19 14.44-21.29 23.12-7.86 11.17-17.71 18.9-32.57 16.53-2.08-.33-4.2-.43-6.29-.71-11.61-1.53-20.73-6.87-24.85-18.22-3.16-8.72-10.24-13.07-17.46-17.07-3.76-2.08-8.91-3.58-13-2.86-13.67 2.45-26.22 7.63-35.11 19.18a57 57 0 0 1-4.27 4.45c-3.45-5.83-6.64-10.78-9.37-16-2.86-5.42-7.52-6.85-13.1-7.21-12.08-.78-21.06 4.74-28 13.89-3.85 5.07-7.82 8.91-14.27 11.13-6.12 2.1-11.14 7.23-16.88 10.62-7.92 4.68-14.72 2.83-20.15-4.56-5.27-7.17-3.93-14.53-1.47-22.13 3.27-10.1-.1-16.19-10.17-18.86A36.76 36.76 0 0 0 2197 70c-12 4-23.88 8.22-32.72 18.11-1.83 2-4.51 3.33-6.78 5-7.63 5.59-15.54 10.85-22.8 16.89-11.8 9.81-22.42 20.51-38.67 24.12-8.4 1.87-15 1.86-21.83-2.37-4.17-2.58-8-5.72-12.06-8.49-6.36-4.33-9.73-10.79-9.43-18 .78-18.46 2.54-36.87 4-55.79 15.91-2.56 31.44-1 46.95-6.67-14.82-11.65-31-8.24-47.39-8.62.12-7.58.39-13.84.24-20.09A55.13 55.13 0 0 0 2055 2.68c-.28-1.19-2.57-2.83-3.72-2.67-1.75.25-4.29 1.58-4.74 3-1.09 3.48-.75 7.47-.93 11.13-.24 5-.06 10 .09 14.92.15 4.74-1.71 7.51-6.59 8q-6.81.63-13.6 1.55c-4.93.68-6.57 3.31-5.36 8 .92 3.57 3 5.31 6.77 5.26 4.8-.07 9.6.11 15.36.2-1 4.87-1.76 8.59-2.61 12.29-3.11 13.53-10.1 25.12-16.66 37.22-8 14.69-18.47 26.05-31.1 36.42a51.23 51.23 0 0 1-16.39 8.87c-11.53 3.95-21.24-1.9-22.94-13.75-2-13.91-3.46-27.89-5.18-41.84-.55-4.4 0-9.25-4.61-12.59-1.25.66-2.73 1-3.6 1.94-10.83 11.4-21.42 23-32.41 34.25-3.71 3.79-3.61 7.71-1.78 12.29a81.94 81.94 0 0 0-8 4c-2.42 1.56-5.36 5.57-6.65 5-5-2.06-5.78 1.43-8 4.13-3 3.81-8.88 4.49-13.34 2.6-6.11-2.58-9.4-6.64-9-13.67.49-8.39-2.38-15.94-7.45-22.56-4.47-5.85-9.4-7.1-15.69-3.91-13.17 6.67-26.5 13.19-33.68 27.29-.16.33-1.22.19-2.6.37.71-13.24 2.3-26.61-4.9-40.1-8.38 2.94-16.58 5.71-24.67 8.8-1.28.49-2.09 2.23-3.07 3.5a112.31 112.31 0 0 0 11.94 1.31c3.26.07 7.67-2.22 9.51-.8 2.16 1.67 2.42 6.18 2.87 9.54a26.87 26.87 0 0 1-.45 8.28c-1.07 5.88-2.8 11.65-3.58 17.55-.56 4.29-1.61 9.33 4.06 11.61 2.92-2.18 5.64-5.87 8.32-5.85 5.3.05 6.39-3.32 8.3-6.61 5.31-9.16 11.34-17.22 21.51-22.16 11.24-5.45 17.6-3 19.59 9.59.71 4.52 1 9.1 1.84 13.6 1.51 8.54 6.38 12.92 14.91 13.31a39.38 39.38 0 0 0 8.38-.71c14.56-2.53 23.34-13.81 33.17-23 8.15-7.59 14.55-17 21.84-25.55 1.71-2 3.87-3.61 7-6.49 1.24 7.65 2.51 13.73 3.12 19.88.56 5.61 5.67 11.32.39 17.69-2.52-3-4.36-5.6-6.57-7.79a12.09 12.09 0 0 0-5.16-3.3c-4.59-1.09-11.41 3.09-13.65 7.88-4.16 8.92-4.44 17.4 0 20.59a169.58 169.58 0 0 0 20.32 12.81c3.87 2 10.12 4 12.76-.23 4.67-7.46 11.05-5.85 17.52-5.9 10.32-.08 19.47-2.45 28.24-9 17.12-12.8 29-29.34 38.42-48a17.54 17.54 0 0 1 10.45-9.49c-.07 4.47-.22 7.93-.16 11.38.22 12.71 4.94 23.5 15.43 30.73a116.08 116.08 0 0 0 22.35 11.66c3.49 1.41 8.31 1.12 12 0a170 170 0 0 0 23.59-9.06c4.35-2.05 8.85-5 11.74-8.72 7.65-9.86 18.06-16.29 27.55-23.85 2.77-2.2 6.54-3.15 8.75-4.18 5.22 6.65 8.47 13.71 14 16.94 5.22 3.07 13 3.5 19.27 2.61 6.57-.92 12.72-4.79 16.26-6.24l15.83 12.27c6.12 4.75 13.64 6.1 19.93 2.8 12.36-6.48 24.68-13.37 34.77-23.42 4.22-4.2 8.33-8.7 13.21-12 6.86-4.63 14.52-2.12 18.2 5.25 4.23 8.48 8.07 17.17 12.44 25.58 1.86 3.6 4 7.48 10.09 7.57 1-5.51 2-10.91 3.07-16.28.61-3.07.65-6.6 2.25-9.08 6.57-10.2 16.57-15 28.41-15.43 11.05-.38 16.57 6.71 21.09 16 5.79 11.88 15.69 19.86 28.82 22.43 6.82 1.34 14 1.18 21 .82a27.45 27.45 0 0 0 11.69-3.48c7.78-4.42 13.22-11.34 18.18-18.75 5.57-8.34 11.53-16.5 20.82-20.56 3 4.68 5.06 9.16 8.22 12.69 10.36 11.61 23.67 19 37.55 25.65 10.1 4.84 20 6 30.53 1.79 2.84-1.15 6.21-1 9.33-1.45 15.26-2.3 30.79-3.42 44.75-11.11a9.62 9.62 0 0 1 6.79-1c6.53 1.49 13 3.46 19.36 5.46 16.09 5 32 10.39 49.34 9.42 9.8-.55 19.67.11 29.5.44 15.07.5 30.12 1.24 45.19 1.8 6.66.24 13.66-1 19.95.67 21 5.47 42.3 6.13 63.78 6.05 23.53-.09 47.06.36 70.58.4 24.25.05 48.5-.28 72.75-.11 7.64 0 15.26 1.44 22.91 1.73 15.82.6 31.65.77 47.47 1.34 9.45.33 18.89 1.58 28.33 1.47 8-.08 16-3.17 23.95.32a3.84 3.84 0 0 0 3-.34c10-5.83 20.49-1.71 31.8-2.26-2.52 4.87-.68 7.1 3.29 7.16 4.51.05 9-.52 13.55-.9 6.2-.53 12.39-1.28 18.6-1.63 3.12-.17 6.28.52 9.42.52 14.26 0 28.52-.36 42.77-.12 33.08.57 66.14 1.57 99.22 2.09 24.94.4 49.89.46 74.83.43 16.83 0 33.66-.31 50.48-.73a533 533 0 0 1 55.26 1.79 6 6 0 0 0 6.39-6.81l-.45-3.23a7 7 0 0 0-7.08-6c-10.67.23-21.39.58-32.12.67zm-1572 11.86c.18-7 .18-7 4-10.45l19.18 18.68c-5.13 2.76-10.59.76-23.19-8.23zm270.06-36.26a21.77 21.77 0 0 1-8.86-2.73c-5.2-3-5.92-8.76-2.2-13.55 7.9-10.17 23-15 36.52-11.31.26 18.42-9.59 28.9-25.47 27.59zm441.77-27.69c4.09-8.1 7.28-17.05 15.61-21.85 3.79-2.19 8.5-3.23 12.91-3.75 4.09-.48 5.87 2.69 3.76 6.13-4.73 7.73-9.15 15.75-14.81 22.77-4.25 5.28-10.21 9.19-16.89 15-1.52-7.48-3.35-12.78-.59-18.3zM1761.24 102.46c1.57 4.44-2.43 5.77-4.77 7-8.3 4.45-16.79 8.6-25.45 12.28-9 3.81-18.29 6.87-27.39 10.42a38.56 38.56 0 0 1-17.33 3c-10-.75-20.24-.31-30.34.27-6 .35-11.37 2.11-14.34 8.74-6 13.46-18.58 16.22-31.39 16.4-18.93.27-28.26-12.92-23-31.05.84-2.88 1.71-5.75 3-10.18-7.75 3.14-13.8 4.86-19.89 8.69-11 6.93-21.3 16.15-35.51 17.24-4.33.33-8.6 2.94-12.67 5a138 138 0 0 1-40.88 13.23c-13.51 2-26.64 6.66-40.16 8.51-21.63 3-43 .21-62.43-10-10.81-5.68-17.74-15.77-21.51-27.58-.89-2.77-1.72-5.22 1.62-8.22 2.41-2.17 2-7.45 3.09-12.33-9.83 3.25-17.73 8.17-25.22 13.82-2 1.48-3.71 3.23-5.6 4.82-11.3 9.54-22.75 18.44-37.66 22.38-8 2.1-14.86 8-22.75 10.72-14.16 4.87-28.54 9.43-43.16 12.59-14 3-28.48 4.25-42.77 6a86.54 86.54 0 0 1-50.2-9.2c-9.9-5.05-18-14.49-25.48-23.14-5.63-6.48-9.94-14.49-13.28-22.48-3.76-9-5.89-18.71-8.49-28.17-2.7-9.81-5.09-19.71-7.71-29.54-.34-1.28-1.25-2.41-2.42-4.57a47.55 47.55 0 0 0-15.77 13.56c-6.17 8.36-16 11.1-23.77 17-4.11 3.13-8.85.57-13.07-1.13-8.15-3.26-16.16-6.87-24.33-10-15.13-5.88-31.12-6.35-46.77-4.53-7.79.91-15 6.42-24.29 10.65-1.31-1.16-4.59-3.21-6.67-6.13-3.25-4.55-5.6-9.73-8.47-14.56-3.65-6.14-7.45-12.2-11.88-19.43-8.64 15.42-18.18 28.45-23.43 43-4.75 13.16-13.1 23.86-18.82 36.16-6.36 13.68-12.91 27.29-18.84 41.17-4 9.23-11.44 15.09-19 20.44s-16.45 8.26-26.42 9.14c-16.35 1.45-32.44 5.52-48.72 8-9.32 1.43-18.77 2.19-28.19 2.74-11.2.66-22.44.78-33.66 1.09-10.89.31-21.8.38-32.69.88-19.65.9-39.29 2.24-58.94 3-26.33 1.06-52.66 2-79 2.52-11.92.22-23.86-.92-35.79-1.28-32.27-1-64.31-1.74-96.67 2.68-33.66 4.6-68 4.45-102 6.51-21.39 1.3-42.76 2.93-64.15 4.23a64.18 64.18 0 0 1-14.67-.46c-2.87-.49-5.74-2.52-8-4.54-1.29-1.16-2.39-4.31-1.71-5.46 1.05-1.76 3.74-3.69 5.66-3.62 42.83 1.55 85.41-3.61 128.16-4.46 24.86-.5 49.67-4.2 74.45-6.94 17.14-1.89 34.14-2.58 51.39-1 12.46 1.11 25.12-.09 37.69-.1 7.35 0 14.71.54 22.06.42 15-.24 30.05-.74 45.08-1.17 8.06-.24 16.15-1.19 24.17-.73 18.33 1.06 36.51.09 54.74-1.75 9.68-1 19.5-.46 29.26-.73 22.81-.62 45.63-1.12 68.43-2.1 5.12-.22 10.14-2.3 15.23-3.4 7.84-1.7 15.66-3.49 23.55-4.87a104.22 104.22 0 0 1 13.57-1.15c15.56-.66 29.85-4.35 40.31-17a51.43 51.43 0 0 0 6.34-9.55c6.17-12.19 12-24.54 18.15-36.75 2-4.06 4.73-7.79 6.91-11.79 3.17-5.82 6.15-11.74 9.19-17.62.32-.62.44-1.35.76-2 9.68-18.66 19.17-37.43 29.17-55.91 4.17-7.69 5.67-7.14 12.09-.86 5.43 5.32 9 11.49 12.06 18.29 2.85 6.27 5 13.24 11.31 17.19 29-12.49 57.17-8.08 84.74 3.94 16.15 7 22.8 6.33 35.79-5.64 8.46-7.8 16.93-15.57 25.54-23.2 4.68-4.15 7.18-3.65 8.84 2.32 3.4 12.18 6.86 24.41 9.12 36.84 3.71 20.32 10.29 39.37 22.61 56.05 9.38 12.71 20.87 22.13 37.38 25.07 18.55 3.31 36.56 2.5 55-.87 15.78-2.89 31.89-4.06 47-10 11.4-4.51 22.38-10.18 34-14.13 18-6.14 31.62-18.75 46.87-29 9.27-6.24 19.18-11.56 30.89-11.94 1.27 0 2.44-1.28 3.75-1.67 9.84-2.93 19.32-3.25 28 3.63 2.71 2.16 5.86 3.76 9.52 6.07-.43 3.8-.91 8.11-1.65 14.63-4-2.53-6.55-3.91-8.84-5.6-2.78-2-5.24-4.5-8.06-6.47-5-3.51-10-2.53-14.73.68-12.23 8.36-12.79 14.46-4.38 26.9 6.44 9.52 15.68 13.76 26.06 16.33 6.46 1.6 13.18 2.11 19.69 3.57 12.4 2.78 24.37.32 36.32-2.55 5.1-1.22 10.08-3.38 15.23-3.81 11.31-.95 21.83-4.16 32.3-8.4 14.55-5.88 29.72-10.28 44.1-16.52s28.91-12.49 41-23.36c4.15-3.75 10.45-5.92 16.13-7a367.27 367.27 0 0 1 37.37-5.32c8.47-.77 10.58 1.4 11.7 9.72.88 6.53 1.11 13.15 1.7 20.79 4.38.31 8.45.73 12.53.84 5.62.14 11.3.51 16.85-.09a113.49 113.49 0 0 0 18.34-3.6c6.41-1.78 12.51-4.69 18.92-6.48 10.89-3 21.45-6.7 31-12.92 3.13-2 6.39-3 9.86-.73zm-146 8.31c-12.24 5.87-18.94 13.6-20.42 25.37-.78 6.24 1.42 10.56 6.66 13 10.53 4.8 30.18 3.68 34.77-13.39-9.77-5.17-19.79-10.51-21.01-24.98zm23.22 14.39c5.42.79 8.63-2.22 7.94-7.65a27.71 27.71 0 0 0-1.6-7.07c-.83-2-2.1-4.83-3.72-5.27s-4 1.47-5.77 2.8c-1.28 1-1.77 3.59-3 3.92-3.74 1-6.56 2.15-5.85 6.85s5.54 3.26 8.04 5.26c1.01.79 2.62.8 3.96 1.16z"/>
<path d="M947.79 181.32c-4.52 2.72-6.31 6.65-6.79 11.39-.21 2.09.25 4.61-.77 6.18-1.35 2.1-3.65 4.39-5.9 4.84-1.63.32-4.66-1.77-5.61-3.56-2.29-4.32-3.56-9.16-5.57-13.65-1.5-3.37-3.51-6.52-5.13-9.48-7.12.73-9.6 5.93-13.49 9.27-4.22 3.63-8.39 7.44-13.08 10.37-3.09 1.93-7.08 1.65-9.09-2.28-1.71-3.33-1.65-6.76 1.53-9.53 7.09-6.17 13.93-12.64 21.26-18.49 17-13.5 38.09-11.7 52.57 4.57 3.91 4.4 7 9.62 10 14.7 1.92 3.19 2.38 6.78-1.4 9.31s-7.61 2.2-10.39-1.26c-2.93-3.7-5.31-8.02-8.14-12.38zM1017.36 171.48c-3.7 4.34-6.34 7.32-8.84 10.42-1.52 1.89-2.44 4.64-4.35 5.73a7.51 7.51 0 0 1-6.56 0c-1.5-1-3-4.87-2.33-5.8 6.43-8.53 7.36-21.38 19.83-25.22 25.14-7.75 41.84-.21 50.42 23 1 2.79-.52 6.53-.84 9.56-12.43 4.46-12.39-6.67-17.59-13.27-2.72 6.4-4.72 11.83-7.35 16.93-1.12 2.17-3.44 5-5.39 5.18-3.13.23-6.37-.59-7.72-5.23-1.9-6.49-5.37-12.55-9.28-21.3zM1906.36 117.33a67.29 67.29 0 0 1-25.9 22.13c-1.73.84-.21 3.43 1.52 2.59a70.41 70.41 0 0 0 27-23.2c1.11-1.59-1.49-3.09-2.59-1.52zM1755.43 106.45a92.26 92.26 0 0 1 26.74-8.57c1.9-.31 1.09-3.2-.8-2.89a95.14 95.14 0 0 0-27.46 8.87c-1.73.87-.21 3.45 1.52 2.59z"/>
<path d="M1901.17 129.13a30.74 30.74 0 0 1 7.75-10.16l-2.5-.66a5.67 5.67 0 0 1-3 7c-1.74.84-.22 3.43 1.51 2.59a8.64 8.64 0 0 0 4.33-10.44 1.52 1.52 0 0 0-2.51-.66 32.79 32.79 0 0 0-8.22 10.76c-.83 1.74 1.75 3.26 2.59 1.52zM2641 56.21a55.39 55.39 0 0 0-14.76 25.37c-1.26 4.86-4.61 17.25 2.72 19 1.88.46 2.68-2.44.8-2.89-5.59-1.35-.19-17.34 1.08-20.7a52.42 52.42 0 0 1 12.28-18.68 1.5 1.5 0 0 0-2.12-2.12z"/><path d="M2625 80.83l-.12 7.5c0 1.93 3 1.93 3 0l.12-7.5c0-1.93-3-1.93-3 0z"/><path d="M2632.65 96.9c-5.22-1-3.13-19-2.77-22.6.19-1.92-2.81-1.91-3 0a71.21 71.21 0 0 0 .31 19.18c.51 2.88 1.5 5.71 4.67 6.31 1.88.36 2.69-2.53.79-2.89z"/><path d="M2625.51 82.84l-.12 7.49a1.5 1.5 0 0 0 3 0l.12-7.49a1.5 1.5 0 0 0-3 0z"/><path d="M2624 83.31l-.08 5.5c0 1.93 3 1.93 3 0l.08-5.5c0-1.93-3-1.93-3 0z"/><path d="M2626.2 89.82a16 16 0 0 0 9.2 7.64c1.84.6 2.62-2.3.79-2.9a13 13 0 0 1-7.4-6.25c-.91-1.7-3.5-.19-2.59 1.51z"/><path d="M2636.34 96.63c-2.42.13-3.91-2.38-5-4.21a1.5 1.5 0 0 0-2.59 1.51c1.64 2.78 4 5.89 7.58 5.7 1.92-.11 1.93-3.11 0-3zM1770.63 99.16a21.68 21.68 0 0 0-14.18 5.09c-1.2 1 .1 2.88 1.46 2.51a103.91 103.91 0 0 0 12.84-4.39l-1.16-2.74-11.25 5.28c-1.75.82-.23 3.41 1.51 2.59l11.25-5.28c1.52-.72.42-3.4-1.15-2.75a104 104 0 0 1-12.84 4.4l1.46 2.51a18.37 18.37 0 0 1 12.06-4.22 1.5 1.5 0 0 0 0-3zM1904.25 125.31a5.67 5.67 0 0 0-5.38 3.17 1.56 1.56 0 0 0 .54 2.06 1.52 1.52 0 0 0 2-.54 2.77 2.77 0 0 1 2.79-1.69c1.93.12 1.92-2.89 0-3zM1881.15 139.12c-2.14.73-3.51 2.13-5.19 3.56-2.58 2.19-5.75 2.43-9 2.57-1.92.08-1.93 3.08 0 3 2.68-.12 5.47-.25 8-1.36 2.65-1.18 4.32-3.95 7-4.88 1.82-.61 1-3.51-.8-2.89z"/><path d="M1905.21 116.07c-11 11.23-21.27 29.58-39.55 27.34-1.91-.24-1.9 2.77 0 3 19.22 2.36 30.11-16.4 41.67-28.22 1.35-1.38-.77-3.51-2.12-2.12zM1776.13 99.82c-7.39.49-15 3.68-22.05 5.8-1.85.55-1.06 3.45.79 2.89 6.73-2 14.22-5.22 21.26-5.69 1.91-.13 1.93-3.13 0-3z"/><path d="M1794.63 91.92a169.82 169.82 0 0 0-39.32 10.37c-1.78.71-1 3.61.79 2.9a169.42 169.42 0 0 1 39.33-10.38c1.9-.26 1.09-3.15-.8-2.89z"/><path d="M1757.82 104.32a178.49 178.49 0 0 1 17.13-7.8c2.1-.78 17-6.15 18.09-3.46.73 1.76 3.64 1 2.89-.8-2.14-5.15-11-1.89-14.87-.86-8.67 2.32-16.76 6.35-24.76 10.33-1.73.86-.21 3.45 1.52 2.59z"/><path d="M1790.88 91.22a7.85 7.85 0 0 0-5.7.64c-1.71.89-.2 3.47 1.52 2.59a4.59 4.59 0 0 1 3.39-.33 1.5 1.5 0 0 0 .79-2.9zM1919 134.82l-.42 7.88c-.1 1.82-.31 3.63.82 5.17s3.73 0 2.59-1.51c-1-1.39-.4-3.92-.31-5.51l.32-6c.1-1.93-2.9-1.92-3 0z"/>
<path d="M1918.05 132.27a17.77 17.77 0 0 0-1 13.24c.59 1.83 3.48 1.05 2.89-.8a14.67 14.67 0 0 1 .66-10.93c.83-1.73-1.76-3.26-2.59-1.51z"/>
<path d="M1917.06 135.06c-1.58 4.08-2.65 8.41.31 12.12 1.21 1.51 3.32-.63 2.13-2.12-2.16-2.7-.63-6.4.46-9.2.7-1.8-2.2-2.58-2.9-.8z"/>
<path d="M1915.67 135.27a63.33 63.33 0 0 0-.67 7.73 5.26 5.26 0 0 0 1.61 4.35c1.49 1.21 3.62-.9 2.13-2.12-1.21-1-.7-3.24-.61-4.6.13-1.81.32-3.6.55-5.4s-2.75-1.89-3 0z"/>
<path d="M1914.47 137.25c-.47 4-.39 8.14 3.21 10.62 1.6 1.1 3.1-1.5 1.52-2.59-2.57-1.77-2-5.36-1.73-8 .23-1.91-2.78-1.89-3 0z"/>
<path d="M1915 145.49a1.5 1.5 0 0 0 0-3 1.5 1.5 0 0 0 0 3z"/>
<path d="M1915.25 146.46c2.54 1.39 4.66 3.4 7.18 4.78 2.19 1.19 5.17 1.47 6.73 3.57 1.14 1.53 3.74 0 2.59-1.51-1.56-2.1-3.63-2.93-6-3.86-3.3-1.29-5.88-3.87-9-5.57-1.7-.92-3.21 1.67-1.52 2.59zM3112.73 139.67c17.37 1.37 34.63 2.19 52 1.09 1.92-.13 1.94-3.13 0-3-17.41 1.1-34.67.28-52-1.09-1.93-.15-1.92 2.85 0 3z"/>
<path d="M3162 142q-19.91-3-40-4.64c-1.92-.16-1.91 2.84 0 3q19.67 1.63 39.18 4.54c1.89.28 2.7-2.61.79-2.9z"/>
<path d="M3160.72 141.22a57.79 57.79 0 0 0-12.72-1.42 1.5 1.5 0 0 0 0 3 54.2 54.2 0 0 1 11.91 1.31c1.88.42 2.68-2.47.8-2.89z"/>
<path d="M3161.86 144.19c-19.53-4.87-39.42-6.27-59.49-6.25a1.5 1.5 0 0 0 0 3c19.81 0 39.41 1.33 58.69 6.14 1.87.47 2.67-2.42.8-2.89zM1353.22 438.52a134.55 134.55 0 0 1-1.25 13.59h2.9a68.94 68.94 0 0 1-2.13-15.2 1.5 1.5 0 0 0-3 0l-.49 11.13h3a21.55 21.55 0 0 0-1.34-6.24c-.46-1.24-2.6-1.61-2.89 0l-1.11 6.19h2.89l-1-6.64c-.29-1.92-3.15-1.09-2.89.79l.74 5.44c.26 1.91 3.15 1.1 2.89-.8l-.74-5.43-2.89.79 1 6.64c.22 1.46 2.64 1.42 2.89 0l1.11-6.19H1348a19.33 19.33 0 0 1 1.23 5.45 1.5 1.5 0 0 0 3 0l.49-11.13h-3c.33 5.4.73 10.77 2.23 16 .38 1.3 2.67 1.54 2.9 0 .68-4.78 1.14-9.57 1.35-14.39.08-1.93-2.92-1.92-3 0zM1517.91 415.63c-1.84 2.61-3.67 5.21-5.5 7.83l2.8.75c.23-2.81 1.14-10.09 5.06-10.11l-1.06-2.56a31.31 31.31 0 0 0-5.12 7.75 1.5 1.5 0 0 0 2.59 1.52c1.59-2.53 3.49-4.82 6.59-5.26l-1.15-2.74a33.14 33.14 0 0 0-9.88 11.36c-.9 1.7 1.69 3.22 2.59 1.51a30 30 0 0 1 8.8-10.28 1.51 1.51 0 0 0-1.15-2.74c-3.84.54-6.43 3.51-8.39 6.63l2.59 1.52a28.82 28.82 0 0 1 4.65-7.15 1.52 1.52 0 0 0-1.06-2.56c-6.13 0-7.68 8.42-8.06 13.11-.13 1.62 2 1.86 2.79.76l5.5-7.83c1.11-1.58-1.49-3.08-2.59-1.51z"/>
</svg>

