<svg xmlns="http://www.w3.org/2000/svg" version="1" viewBox="0 0 1678 303">
  <path d="M1371.6 2.8c-.7 1.2-11.8 40.6-14.1 49.9-1.3 5.4-2.1 7.3-3.4 7.3-.9 0-6.5.4-12.6 1-35.5 3-134.7 8-160.7 8-8.8 0-27 .7-40.6 1.5-26.8 1.6-77 3.1-153.7 4.5-44.9.8-56.2 1.2-68.2 2.5l-4.3.5.3-19.3c.2-16.5 0-19.2-1.3-19.2-1.2 0-1.6 2.8-2.1 16.5-.3 9.1-.7 17.7-.8 19.2l-.1 2.6-11.7.7c-14.3.8-57.8 4.1-76.2 5.8-8.9.8-13.6 1.6-13.9 2.5-.5 1.5 5.8 1.6 17.8.2 10.3-1.2 54.8-4.6 71.8-5.5l12.3-.7-.6 6.4c-3.6 35.6-9.5 63.8-18 85.4-20.5 51.8-48.7 80.2-79.8 80.4-8.5 0-18.2-2.5-26.2-6.8-6.1-3.3-7.5-4.7-11.1-10.5-2.6-4.3-5.1-10.2-6.8-16.4-3.6-13.1-9.6-25.1-15.1-30.2-5.3-4.9-10.7-6.6-20.6-6.5-6.9 0-8.2.3-13.3 3.4-9.6 5.9-19.1 20.2-27.2 41l-2.9 7.5-.3-5.5c-.2-3 .2-7.4.7-9.7 1.4-5.4 1.4-38.8.1-41.4-2.2-4-7-2-33.6 13.7-26 15.4-37.7 20-53.9 21.1l-9.1.6-1.2-7.7c-1.3-8.7-2.5-11.3-7.7-17.4-5.6-6.5-9.8-8.2-20.2-8.2-8-.1-8.6-.2-6.9-1.5 1.1-.8 3.2-1.5 4.7-1.5 4.1 0 5.5-2.4 3-4.9-1.7-1.7-3.4-2.1-9.4-2.1-15.6 0-26.8 5.2-40.3 18.5-10.3 10.2-15.5 18.2-19.5 29.9-2.8 8-3 8.2-12.6 16.5-43.9 37.8-75.2 51.5-117.3 51.5-12.8 0-16.9-.4-23.4-2.2-20-5.6-34.1-16.3-38.7-29.7-2-5.9-2.4-8.9-2.4-19.6v-12.5l3.9-8c5.6-11.2 13.1-18.4 26.6-25.1 5.8-2.8 12.5-5.6 15-6.2 6.7-1.6 21-1.3 24 .4 3.3 1.9 5.2 1.9 4.8-.1-.2-.9-3.7-3.4-7.8-5.6-7.4-3.9-7.6-4-17-3.6-9 .3-10 .6-19 5-9.6 4.7-16.1 9.6-34 25.8-16.6 14.9-53.7 44.4-72.5 57.4-20.6 14.4-34.6 21.4-57.2 28.6-20.3 6.5-25.9 7.2-57.6 7.1-36.8-.1-57.6-2.7-94.9-12.1C1.1 282.5 2 282.6 2 284.5c0 .8.3 1.5.6 1.5s4.7 1.1 9.7 2.4c14.2 3.8 42.8 9.3 57.4 11.1 10.4 1.3 19.6 1.6 44.5 1.3l31.3-.4 11.6-3.1c29.8-8.1 54.4-20.7 83.2-42.5 15.8-12 49.3-39.2 58.2-47.2 20.7-18.8 26.6-23.1 37.8-27.7 5.7-2.4 8.4-2.9 15.1-2.9 4.4 0 8.8.5 9.6 1 1.1.7-.3 1-4.5 1-8.4 0-16.2 2.3-26.5 7.6-12 6.1-17.5 10.2-22.2 16.5-7.9 10.5-10.8 19.3-10.8 32.4.1 22.9 8.9 36.5 30.1 46.4 12.7 5.9 21.7 7.6 38.9 7.5 41.5-.3 74.7-14.6 115.6-50.1 4.4-3.8 8.5-7.2 9-7.5.5-.4.9 4.1.9 10.5.1 10.3.4 11.9 3.4 19.5 4.6 11.6 8.3 16.1 15.6 19.1 8.1 3.3 23.6 4.1 32.1 1.6 13.8-3.9 27.3-14.6 37-29.2 7.6-11.3 11.1-20 12-29.6l.7-7.7h5.7c3.2 0 9.1-.6 13.2-1.4 13.3-2.6 22.4-6.7 49.4-22.7 15.5-9.1 22.8-12.9 24.9-12.9 1.5 0 1.6 2.1 1.1 20.2-.3 11.2-.8 24.8-1.1 30.3-.6 10.9.4 14.5 2.9 11.2.8-1 2.9-5.5 4.7-10 9.2-23.1 18.5-37.4 27.7-42.5 8.6-4.8 22.4-3.5 29.5 2.8 5.3 4.6 10.9 16.3 15.2 31.5 3.6 12.9 9.8 21.8 18.3 26.3 7.5 4 19.6 7.2 27.1 7.2 13.7-.1 28.7-6 41.2-16.4 21.9-18.2 43.3-58.8 52.3-99.2 3.4-15.2 3.3-9.2-.4 25.7-1.7 15.6-3.5 32.9-4.1 38.4-1.2 11.1-.6 22.2 1.6 30.5 1.7 6.5 7.1 12.2 13.1 13.9 5.5 1.5 16.8 1.3 24.4-.5 8.1-1.9 19.3-7.8 28.5-15.1 3.9-3.1 15.9-14.6 26.8-25.7 17.8-18 19.6-19.6 17.4-15.1-5.6 11.4-7.3 24-3.9 29.7 4.3 7.4 16.4 9 27 3.7 10.5-5.2 24.3-21 34.1-39l4.1-7.4v5c.1 2.7.5 10.9.9 18.2 1 14.2 1.9 16.8 7.8 22.5 5.6 5.4 11.7 7.3 23.3 7.3 11.6 0 21.6-2.4 30-7.2 5.8-3.3 24.7-21.8 31-30.4 5.3-7 17.9-18.8 16.6-15.4-2.5 6.6-3.8 15.6-3.3 24 .7 12.9 1.9 15.9 8.9 22.8 11.2 11 24.9 15.3 45.2 14.4 14.8-.6 24.9-3.1 37.1-9.1 12-5.9 20.6-12.5 35.1-27 14.7-14.7 20.6-22.9 29.4-40.9l6.8-13.9-.5 9.4c-.3 5.1 0 15.4.5 22.9 2.5 30.2 11.2 43.8 35.7 55.5 17.5 8.3 36.6 11.7 66.5 11.7 29.7 0 50-3.4 98.2-16.2 44.6-11.9 82.3-25.8 106.3-39.2 12.4-6.9 27.9-16.7 28.3-17.7.8-2.6-3.1-.8-15.9 7-30.2 18.3-65.7 32.6-113.3 45.4-55.7 15-72.4 17.8-105.6 17.7-30.2-.1-51.7-4.5-68.6-13.9-7.5-4.2-16.6-12.2-20-17.6-4-6.3-7.3-17.7-8.4-29.4-2.3-24.6-.8-42 5.1-58.6 3.8-10.5 13.1-43.9 15.9-57 .7-3.1 1.6-6.2 2-6.8 1.9-3.1 201.1-5.7 230.4-3 8 .7 12.3.7 13 0 .5-.5.8-1.2.5-1.4-3.1-3-114.9-3.7-195.9-1.2-25.6.8-46.7 1.2-46.9 1.1-.2-.2.4-4.4 1.2-9.2 3.5-19.5 5.2-46.2 3-47-.6-.2-1.4 0-1.7.5zm-2 30.5c-.9 7.2-2.1 16-2.7 19.3-1 5.9-1.2 6.2-4.2 6.7-1.8.2-3.4.3-3.5.2-.2-.2 1.7-8.1 4.3-17.7 2.6-9.5 5.2-19.3 5.9-21.8 1.8-7.3 1.9-1.5.2 13.3zm-4.6 29c0 .1-3.1 12.2-6.9 26.7-10.3 39.4-11.1 40.3-5.7 6 4.1-25.6 5.3-31.2 6.9-32.2 1.1-.7 5.7-1.1 5.7-.5zm-10.3 2.9c-1.4 5.4-5 27-8.1 49-3.3 22.6-3.7 24.3-8.6 36.2-9.6 23.2-17.8 35.5-35.4 53.1-24.7 24.6-42 33.1-69.6 34.2-19.6.8-31.9-3-42.4-13.1-4.4-4.3-5.8-6.4-7.2-11.1-2.2-7.9-1.5-22.4 1.6-31.7s5.1-10 26.8-10.6c15.9-.4 16.4-.5 17.2-2.7 1.4-3.7 0-10.1-2.7-12.7-2.2-2.1-3.4-2.3-12.2-2.3-9.1 0-10.1.2-14.6 3-2.7 1.7-6.4 5.1-8.2 7.5-4.3 5.9-7.7 9.5-14.6 15.3-3.2 2.7-9 9-13.1 14-11 13.9-25.4 27.2-33 30.8-14.3 6.7-31.7 7.7-41.6 2.3-7.6-4.1-10.8-8.9-12-18.4-1.3-10.1-1.2-28.3.1-35.4 1.2-6.7-.2-10-2.1-5-3.1 8.1-11.8 23.9-17.5 31.9-8.9 12.5-16.3 19.8-24 23.6-5.6 2.7-7.2 3.1-12.5 2.7-4.9-.3-6.5-.9-9-3.3-2.7-2.5-3-3.5-3-8.6 0-10.4 5.8-23.2 15.1-33.4 7.8-8.5 10.5-9.5 24.8-9.5 9.7 0 12-.3 12.5-1.5.3-.9-.3-2.4-1.4-3.5-1.6-1.6-3.4-2-9.5-2-4.5 0-9.1.6-11.7 1.6-7.8 3-19 12.5-41.3 34.9-26.3 26.4-32.8 32.2-43.2 38.1-10.4 6-18.6 8.4-28.2 8.4-13.2 0-18.4-2.9-21.5-11.8-3.6-10.2-3.3-17.7 2.9-74.7 1.3-12.1 2.9-31 3.4-42 .6-11 1.4-23.9 1.7-28.7l.7-8.8 3.1-.4c7.2-1.1 24.8-1.8 69.1-2.6 71.1-1.3 127.2-2.9 144.5-4.1 8.5-.5 32.1-1.4 52.3-1.9 48.3-1.2 124-5.1 156.2-7.9 16.2-1.5 16.8-1.4 16.2 1.1zm-447 62.5c-.3 1-.5.4-.5-1.2 0-1.7.2-2.4.5-1.8.2.7.2 2.1 0 3zm315.3 29.6c2.9 1.4 5.1 8 3.3 9.8-.7.7-5.9 1.1-13.4 1.1-6.8 0-14.4.4-16.8.9-2.4.5-4.6.7-4.9.5-1.1-1.2 6.3-8.7 11-11 5.8-2.9 16.3-3.6 20.8-1.3zm-168.2 10.4c-2.1.2-5.7.2-8 0-2.4-.2-.7-.4 3.7-.4s6.3.2 4.3.4zm-501.5 9.2c-9.6 5.1-19.3 12.4-34.4 26.2-20.7 18.8-21.3 19.3-21.6 18.2-.6-1.7 5-13.3 9.5-20.1 4.9-7.2 17.5-18.9 24.1-22.5 6.7-3.7 14.3-5.6 22.6-5.6h7l-7.2 3.8zm21.5 7.8c3.8 1.8 9.5 8.4 11.6 13.4.8 1.9 1.7 6 2.1 9.1l.7 5.8h-5.1c-11.9 0-26.6-5.7-31.4-12.2-2.7-3.6-3.4-12-1.3-15.2 1.3-2 2.6-2.6 6.8-2.9 7.1-.5 12.6.2 16.6 2zm-26.8.2c-1.7 3.3-1.1 10.4 1.3 15.1 4.4 8.8 16.3 14.6 32.1 15.7l7.9.6-.6 6.6c-.7 8.8-3.8 16.8-10.4 27.1-9.6 15-21 24.6-34.3 29-11.7 3.9-28.7 2.4-37.6-3.5-3-2-9-13.7-11.1-21.8-1.1-4.4-1.4-8.9-1.1-15.6.5-9.3.6-9.5 3.9-12.4 1.9-1.6 10.9-9.7 20.1-17.9 14.1-12.7 29-24.8 30.5-24.8.2 0-.1.9-.7 1.9z"/>
</svg>
