<svg xmlns="http://www.w3.org/2000/svg" version="1" viewBox="0 0 1717 489">
  <path d="M47.5 2.3c-.3.7-.5 25.1-.3 54l.3 52.7H24.8c-19.6 0-22.8.2-22.8 1.5s3.2 1.5 23 1.5c21.2 0 23 .1 23 1.7 0 7.2 5 74.2 7.5 100.3.8 8.5 2.4 28.8 3.5 45 1.2 16.2 2.8 35.8 3.6 43.5.8 7.7 2.1 20.9 2.9 29.4 2.3 24.7 4.5 34.8 8.3 38.4 3.2 3 11.7 3 18.5-.1 5.3-2.3 14.1-10.3 19.2-17.2 5.2-7 13.2-24 17.5-36.8 10.4-31 15-59.8 19.1-118.7 1.1-17.1 1.9-22.1 1.9-12.8 0 2.8 1.4 18.5 3.1 34.9 2.6 26 3.1 35.3 3.6 70.6.3 22.5 1 40.8 1.4 40.8 1.4 0 1.9-1.7 5.9-17.3 5.6-21.9 12.2-40.5 19.2-53.7 6-11.5 11.8-19.7 14.5-20.7 4.7-1.8 9.4 11.5 13.4 37.8 3.4 23.4 4.9 30 7.8 35.7 3.1 6.2 9.7 12.4 16.7 15.8 5.6 2.8 6.6 2.9 18.9 2.9 12.7 0 13.2-.1 19.7-3.3 7.9-3.9 18.1-14.2 21.7-22 2.7-5.6 3.5-6.2 5-3.3 1.8 3.3 13.3 11.2 22.6 15.6 14.3 6.8 19.1 7.7 43 8.2 18 .4 22.8.2 33.5-1.6 54.3-8.9 95.2-38 110.7-78.5 4.6-12.1 9.4-22.6 10.4-22.6 1.5 0 2.7 3.4 4.5 12 1.6 7.9 1.6 9.8.1 29-2.5 31.7-4.4 221.7-2.2 222.2.6.2 1.1-2.6 1.2-6.7.1-3.9.7-16.7 1.3-28.5 2.2-43.8 4.1-92.4 4.9-123.3.5-17.5 1.1-32 1.5-32.4.3-.3.6.5.6 1.8 0 4.4 6.7 16.8 11.8 21.7 7.1 6.9 13.6 10.1 23.1 11.2 16.9 2.2 31.9-2 42.4-11.8 5-4.7 5.5-4.9 15.2-6.6 11.7-2 24.6-6.1 35.3-11.3 14.8-7.2 33.9-28.3 43.3-47.9 5.9-12.5 8.8-22.3 9.6-33.1.3-4.5 1-8 1.4-7.7 2.9 1.8 12.2 18.1 15 26.4 2.8 8.3 3.3 11.3 3.9 24 .7 15.4 1.7 19.3 6.2 24.2 9.3 9.9 29.5 9.5 46.1-.9 8.2-5.1 20.8-18.2 36.9-38.3 11.9-14.9 23.9-25.2 34.3-29.4 6-2.3 11.5-3.9 11.5-3.3 0 .2-2.4 5.1-5.4 11-6.6 13-7.9 18.4-7 29.7.8 10.4 3.3 15.7 10.2 22.2 6.8 6.4 13.2 8.2 26.4 7.6 13.5-.7 19.7-3.7 30.7-15.4 8.1-8.5 12.7-16.3 16.5-27.7 1.9-5.6 3.9-17.9 3.4-20.4-.3-1.4 2.7-3.3 13.7-8.8 7.7-3.9 19.2-10 25.5-13.7 21.2-12.3 44.3-21.8 53.1-21.8 3 0 2.9.2-7.2 10.8-11.5 11.9-15.1 17.7-17.4 27.3-3.2 13.9-1.1 28.4 6.5 43.4 10.6 21 25.1 33.5 45.5 39 9 2.4 29.9 3 42.1 1.1 17.6-2.7 39.7-10.8 56-20.6 8.1-4.9 8.7-5.1 12-4 5 1.7 17.1 1.4 25.1-.5 10-2.5 23.7-9.5 32.9-16.9 18.3-14.7 37.9-41 63-84.4l8.2-14.3.6 40.8c.3 22.4.9 45.9 1.2 52.2.3 6.3.3 13.4-.1 15.8l-.7 4.5-5.6-.7c-3.1-.4-11-1.8-17.4-3.1-6.4-1.3-14.6-2.4-18.1-2.4h-6.5l-.6 3.6c-1.7 8.5 5.6 22.2 13.9 26.4 7 3.5 19.5 4.1 25.2 1.2 4.8-2.5 8.8-8.1 10.4-14.7.6-2.8 1.3-5.6 1.5-6.3.2-.8 3.1-1.2 10.1-1.2 12.3 0 26.3-2.1 37.1-5.5 4.6-1.5 8.6-2.5 8.8-2.3.2.2-.3 2.8-1.1 5.8-3.2 12-.5 24.7 6.8 32 6 6.1 20.2 15.3 27.3 17.6 9 2.9 26.1 2.7 32.9-.4 11.8-5.5 14.7-11.9 15.3-34.4.2-8.7.7-15.8 1.1-15.8.3 0 6.1 1.1 12.8 2.5 14.4 2.9 44.9 7.2 61.3 8.5 15.2 1.3 47.7 1.3 61.5 0 12.8-1.2 43.2-6.2 55.4-9.1 14.7-3.4 52.9-16.6 61-21 4.2-2.3 10.2-5.5 13.4-7 5.6-2.8 7.3-4.9 4-4.9-.9 0-7 2.9-13.5 6.5-9.1 5-17 8.2-34.1 13.9-12.2 4-26 8.3-30.7 9.4-12.1 3-41.5 7.9-55 9.1-14.6 1.4-47.9 1.4-63.5 0-23.5-2-70.4-9.5-72.4-11.5-1.2-1.2 3.1-41.1 5.9-54.9 1.6-8.3 3.3-18.7 3.7-23.3.8-10.8-.6-10.8-8.4-.1-15.9 22.2-22.4 29.7-40.8 46.4-8.7 7.9-25.8 19.5-28.8 19.5-2.2 0-7.5 2.6-10.2 5.1-2.9 2.6-18.5 7.6-29.5 9.4-5.2.8-14 1.5-19.5 1.5h-10l-.1-14.2c-.7-72.4-1.7-108.8-2.9-108.8-.7 0-1.6 1.2-2 2.7-1.4 6-28.5 50.9-42 69.7-18.7 26.1-36.8 41.8-55.6 48-8.7 2.9-20.7 4.9-24.7 4-1.5-.3-3.7-.7-4.9-1-2-.4-1.5-1.2 5.1-7.7 11.9-11.7 23.7-31.5 28.7-47.8 1.9-6.1 2.3-9.8 2.3-21.6.1-15.8-.5-17.7-7.5-21.8-5.3-3.1-17.9-2.7-25.1.8-11.1 5.5-21.2 19.5-25.3 35.2-2.2 8.1-3 27.1-1.7 37.7 1.3 10.4 4.4 17.1 10.3 22.1l4.1 3.6-3.9 2.4c-11.7 7.4-31.7 15.7-47.8 19.8-7.8 2-11.4 2.3-27 2.3-16.7 0-18.6-.2-25.7-2.6-16.4-5.5-27.3-13.8-36.3-27.7-11.1-17.2-14.8-34.5-10.9-51.1 2.2-9.3 5.2-13.8 17.9-26.6l11.3-11.4 18.8-.2 18.9-.3v-2.4c0-8-18.4-9.5-32.9-2.6-3.6 1.7-7 2.5-10.6 2.5-3 0-8.8.9-12.9 2.1-8.7 2.4-30.6 12.7-46.1 21.6-10.8 6.2-25.6 13.9-32.2 16.6l-3.8 1.6-1.1-4.2c-3.1-11.7-12.1-22.1-24.2-28.2-6.2-3.1-7.8-3.5-14.9-3.5-9.8 0-13.9 1.6-17.4 6.9-7.6 11.5-1.6 26.4 13.3 33.3 5.8 2.6 7.2 2.8 18.5 2.8 7.7 0 14.4-.6 17.8-1.5 3-.8 5.7-1.5 5.9-1.5.7 0-.9 11.5-2.4 17.5-4.5 17-17.3 34.3-30.2 40.7-5.3 2.6-8 3.2-15 3.6-15.8.8-24.2-3-30.6-14.1-3.8-6.5-4.5-19.9-1.7-29.2 2.8-8.8 9.3-20.7 14.3-26.2 4.5-4.9 4.2-7.4-.6-4.4-1.8 1-6.2 2.8-9.9 4-16.8 5.1-29 14.7-46.6 36.6-13.8 17.1-29.3 32.4-36.8 36.3-18.5 9.6-36.4 6.9-42.5-6.3-1.4-3.1-1.9-6.5-1.9-15.1 0-19.5-4.9-34-16.8-50-3.7-5.1-6.6-10.2-7.6-13.6-1.9-6.7-4.3-9-8.7-8.6-5.1.5-4.7 2.8 1.7 9.7l5.7 6.1-.5 10.3c-.7 12.3-3.8 22.9-10.9 36.7-6.3 12.2-12.5 20.4-23.7 31.2-9.7 9.3-17.9 14.1-33.4 19.2-7.9 2.6-23.8 6-24.5 5.2-.2-.2.9-3.1 2.6-6.4 4.5-8.9 6.5-20.3 5.8-33.6-1-19.9-5.8-31.7-17.7-43.6-14-14.1-29-18.6-48.3-14.5-12.4 2.6-22.5 10.4-28.3 21.7l-2.7 5.3-1.7-6.6c-2-8.2-4.3-11.9-7.4-11.9-1.9 0-2.9 1.2-5.6 7.2-1.8 4-4.6 10.9-6.2 15.3-14.3 38.9-51.2 66.9-102.4 77.6-21.5 4.4-50.3 4.4-67.8-.1-13.2-3.4-29.2-12.5-36-20.6-2.4-3-2.5-3.4-1.2-6.5 3.5-8.5 5-36.4 2-39.3-1.9-1.9-1.8-1.9-5.3-.1-7 3.6-9.3 22-4.5 36.4l2.7 7.8-3.8 7.2c-4.3 8.2-12.7 16.5-20.1 20.1-9.6 4.5-26.3 4.7-34.6.4-15.2-7.8-19.2-15.8-23.3-45.9-2.2-16.3-3.2-21.6-6.1-31.1-2.6-8.9-5.9-13.4-9.8-13.4-8.4 0-26.8 36-35.9 70.5l-2.3 9-.7-32.6c-.5-23.6-1.4-39.5-3.2-57.5-4.2-41.2-4.7-52-5.2-124.9-.3-38.4-.9-71-1.4-72.3-2.7-7.1-3 .6-2.8 71.1.2 74.9.1 77.2-4.7 132.2-5.2 60.6-21 109.8-41.1 128.7-8.8 8.1-19.5 11.9-24.6 8.5-3.6-2.4-6.2-14-8.2-36.2-.2-3.3-1.4-14.6-2.5-25-1.1-10.5-2.9-32.1-4-48-1.1-16-2.7-35.8-3.5-44-2.2-23.2-7.4-93.5-7.5-100.9v-2.9l21.3.7c11.6.4 22.5.8 24.1.9 4.7.3 4.2-2-.6-2.7-2.4-.3-13.4-.9-24.5-1.3-19.3-.6-20.2-.7-20.7-2.7-.3-1.2-.6-25.1-.6-53.3 0-33.3-.4-51.4-1-51.8-.6-.3-1.3 0-1.5.8zm1030.2 171c1.6 1.6 1 1.7-12.5 1.7-7.8 0-14.2-.2-14.2-.5 0-.2 2.1-1.1 4.8-1.9 6.5-2.1 19.5-1.7 21.9.7zm123.8 2.1c4.9 2.1 6.6 5.4 7.2 14.3.8 10.7-1.2 24.3-4.8 33.3-6.3 15.7-18.2 33.6-28 42.1l-6 5.2-3.4-1.6c-4-1.9-7.9-6.8-10.1-12.8-2.6-6.6-2.6-36.9-.1-45.9 5.1-18.1 16.7-32.1 29-35 5.3-1.3 12.6-1.1 16.2.4zm-285.6 11.3c11.3 5.6 22.6 19.3 23.3 28.2.3 3.3.2 3.5-4.7 4.7-2.7.8-9.9 1.5-16 1.6-8.9.2-12-.1-16.3-1.7-14.1-5.2-20.9-18.4-14.9-29 3-5.3 5.7-6.5 15.3-6.5 6.7 0 8.9.4 13.3 2.7zm535.5 7c-.3 3.2-1.9 12.3-3.5 20.3s-3.6 23.3-4.6 34c-.9 10.7-1.7 19.6-1.8 19.7-.1.1-8.5-2-18.8-4.7-10.2-2.7-22.7-5.7-27.6-6.6l-8.9-1.7 6.3-4.1c14.3-9.2 41.7-36.9 51-51.5 3-4.7 7.7-10.9 8.3-11 .2-.1 0 2.5-.4 5.6zm-743.6 2.5c.5.7 1.3 2.4 1.7 3.8l.8 2.5-2.3-2c-3.1-2.8-4.4-5.5-2.7-5.5.8 0 1.9.6 2.5 1.2zm-115 22.3c9.1 4.5 19.2 14.1 23.6 22.4 9.6 18 10 47.6.9 64l-3.5 6.3-12.7-.5c-19.4-.7-33.8-5.7-57.1-19.6-4.7-2.8-9.3-5.1-10.2-5.1-1.3 0-1.8-.8-1.9-2.8 0-1.5-.4-10.1-.8-19.2-.8-14.8-.6-17 1-21.9 6.6-19.2 21.4-28.5 43.7-27.7 8.3.3 10 .7 17 4.1zm-291.1 51.9c-.5 12.4-2.1 22.6-3.6 22.6s-4.1-11-4.1-17.2c0-7.2 2-15 4.6-17.9 3.1-3.4 3.7-1.2 3.1 12.5zM1398.1 260c5.2 1.1 16.8 3.9 25.9 6.3l16.5 4.4.3 13.9c.4 17.6-1.2 24.8-6.9 30.5-5.3 5.3-12.5 7.3-24.3 6.7-6.5-.4-10.9-1.2-15.2-3-7.7-3.1-19.3-10.9-24.3-16.3-6.1-6.7-8.6-18.1-6-28 2.2-8.5 2.9-9.5 9.8-13 7.8-4 11.3-4.3 24.2-1.5zM1278 271c4.7 1 12.4 2.4 17.1 3l8.6 1.2-.8 4.4c-1.1 5.9-3.1 9.5-7.4 13.3-3.3 2.9-4.1 3.1-11.1 3.1-10.5 0-16.2-2.5-20.8-9.4-3.6-5.1-6.4-14.1-5.3-16.9.7-1.8 7.5-1.4 19.7 1.3zm-749.8 57.5l-.9 23-.1-36c-.1-19.8.2-37.8.6-40 1.1-6.1 1.3 26.3.4 53zm19.8-31.7c17.4 10.5 34 16 50.8 16.9 7.6.4 11.2.9 10.9 1.7-.8 2.4-10.5 8.7-16.7 10.8-5.2 1.7-8.8 2.2-17.5 2.2-9.7 0-11.7-.3-16.5-2.6-13.7-6.3-20.7-15.9-24.5-33.6l-.7-3.4 3.4 1.8c1.8.9 6.7 3.7 10.8 6.2z"/>
</svg>
