<svg class="five" xmlns="http://www.w3.org/2000/svg" version="1" viewBox="0 0 506 431">
  <path d="M265.5 2C189 6.8 132.3 28.9 43.5 88.7 23.8 102 18.8 106 21.8 106c.6 0 10.6-6.4 22.4-14.3 78.3-52.5 128.2-74.6 187.3-83.2 32.9-4.8 62.2-5.4 91.5-1.9 29.2 3.5 44.8 8.2 73.5 22.3 29.4 14.5 42.2 23.7 63.5 45.7 31.8 32.9 42.1 57.7 40.8 98.3-1 29.2-10 55.1-29.8 85.4-26 39.9-52.4 66-97.5 96.2-38.8 26-81.8 46-129.5 60.3-32.5 9.8-52.4 12.7-82.4 11.9-37.5-1-57.5-7-85.6-25.7-22.9-15.3-45.8-41.4-57.5-65.5-9.3-19.2-13.9-40.1-13.8-63 .1-40.3 9.2-73.4 28.3-102.4 20.8-31.7 42.1-55.5 72-80.5 24.9-20.9 43.8-33.8 63.5-43.6 19.4-9.6 56.1-22.8 80-28.7 12.1-3 22.4-5.8 22.8-6.2 2.5-2.4-3.2-1.6-23 3.2-36.8 9.1-79.1 26.2-104.1 42.1-31.1 19.8-68.9 53.3-89.9 79.7C22.4 176.2 10.9 199 5 233.9c-7.1 42-3.2 74.7 12.5 106.1 10.7 21.4 34.1 48 54.2 61.7 32.4 22.2 58.5 29.2 103.3 28 29.1-.8 48.6-4.7 87-17.6 75.1-25.3 145.1-69.5 185.5-117.1 22.1-26.1 40-55.2 47.9-77.7 6.6-19 8.1-28.4 8.1-49.8 0-19.8-.6-24.1-5.2-39.5-4.8-16.1-13.7-30.6-30.3-49.5-8.6-9.7-22.9-23-33-30.5-17.4-13.1-50-29.6-71.7-36.4-25-7.8-64.6-11.7-97.8-9.6z"/>
  <path d="M226.6 85.9c-1.1 1.7.4 1.9 20.9 3.6 36.4 2.9 61.3 2.9 93 0 4.7-.4 4.6-.3-3.2 2.2-4.9 1.6-8.3 3.2-8.3 4 0 .7.3 1.3.6 1.3s7.5-2 16.1-4.5c8.5-2.5 16.1-4.5 16.9-4.5.8 0 1.4-.7 1.4-1.5 0-1.9-2.5-1.9-24.5 0-37.2 3.2-65.1 2.9-106.1-1.1-4.1-.4-6.4-.2-6.8.5zM213.6 95.8c-.3.5.1 5.6 1 11.3 2.4 15.7 1.4 50.8-2 73.3-1.4 9.3-2.6 19.3-2.6 22.2 0 9.1-1.1 9.4 47-11.1 46.6-19.8 55.7-22.6 74.2-22.7 15.1 0 24.4 3.6 28.3 11.3 1.7 3.2 1 6.1-3 11.3-2.4 3.1-3.1 3.4-11.8 4.5-33.1 4.2-64.3 14.6-105.7 35.2-31.8 15.9-67.4 38.1-90.5 56.5-12.5 10-34.6 31.2-37.7 36.3-2 3.1-2 3.5-.5 4.6 5.7 4.1 27.6-5.1 108.7-45.7 79.4-39.7 102.7-53.8 128.4-77.9l7.9-7.3 12.1.1c12.3.1 25.2 2.2 38.8 6.2 6.4 1.8 9.3 1.6 6.5-.7-1.6-1.3-14.2-4.7-24.7-6.7-4.7-.8-13.3-1.6-19.1-1.6l-10.7-.1 3-5.7c2.8-5.5 2.9-5.9 1.5-9.2-2.1-5.1-8.8-10.4-15.6-12.3-7.4-2.1-23.7-2.1-33.9 0-11.5 2.3-22.2 6.2-53.4 19.5-34.8 14.9-45.6 19.1-46.8 18.4-.5-.3-.7-2-.4-3.8.2-1.7 1.6-11.1 3-20.7 3.4-23.5 4.4-58.5 2-74-1.6-10-2.7-13.3-4-11.2zM345 203.2c-14.4 13.5-33.6 27.1-57 40.5-28.3 16.3-140.6 71.7-159.8 78.9-8.4 3.2-15.2 4.5-15.2 3.1 0-2.1 27.6-28.2 39.5-37.5 49.5-38.3 123.3-75.6 168.5-85.3 8.7-1.8 24.5-4.5 28.5-4.8.6 0-1.5 2.3-4.5 5.1z"/>
</svg>
