<svg class="four" xmlns="http://www.w3.org/2000/svg" version="1" viewBox="0 0 577 475">
  <path d="M248.5 3c-3.8.4-12.4.5-19 .2-13.7-.5-19.6.7-40.7 8.2-43.9 15.6-70.5 28.2-101.3 48-15.8 10.2-71.8 46-83.3 53.2-2.3 1.5-3 3.4-1.1 3.4 1.4 0 19.4-11.2 64.9-40.5 19-12.2 39.4-25 45.3-28.4 10.9-6.3 24.6-12.8 19.7-9.3-21.6 15.1-47.2 40.7-60.7 60.6-11.1 16.5-22.7 44.8-29.8 72.6-12.3 48.6-15.6 105.3-8.5 142.4 3 15.2 10.6 39.1 15.8 49 11.3 21.9 35.2 47.1 59.9 63 11.8 7.6 36.8 19.3 51.3 24 26 8.5 35.4 9.9 86.5 12.7 42.2 2.3 51.7 2.1 77.4-1.7 9.1-1.3 16.8-2.4 17.3-2.4.4 0 .8 2.7.8 5.9 0 6.3.6 9.1 2.1 9.1.5 0 .9-3.6.9-7.9v-8l5.8-1.1c13-2.6 38.4-10.7 54.7-17.5 13.8-5.7 50.8-24.7 63.4-32.5 23.5-14.6 49.3-36.5 63.5-53.9 19-23.3 33.6-54.5 39.8-85.1 2-10.2 2.3-14.2 2.3-36-.1-27.7-1.2-36.5-7-53.7-6.6-19.8-21.2-46.7-33.5-61.8-31.3-38.5-88-76-141-93.3-26.5-8.7-57.3-16.3-75.3-18.7-12.3-1.6-55.8-1.9-70.2-.5zm52.4 2c23.9 1.5 42.4 5.2 78 15.6 37.3 11 60 21.6 93.9 44.1 19.8 13.1 31.4 22.7 47.4 39.1 16 16.5 24.4 28.5 35.3 50.7 14.1 28.4 16.9 41.1 17 76 0 28.3-1.1 36-8.5 58.7-10.6 32.2-25.2 55.4-49.9 79-22.7 21.8-42.4 34.8-83.1 55.1-22.4 11.2-32.1 15.5-45.5 19.9-18.7 6.3-37 11.2-39 10.5-.8-.4-1.4-4-1.9-10.4-1.6-22.9-7.3-54.8-19.7-110.8-5.5-24.7-19.4-83.2-20.6-86.1-.7-1.9 9-2.9 27.7-2.9 18.4.1 26.6 1.7 38.8 7.7 4.5 2.2 6.6 2.8 7.4 2 2.5-2.5-18.7-10.6-32.6-12.3-8.6-1.1-27.4-.7-37.6.7l-4.5.6-5.4-21.8c-3-12.1-8.9-34.5-13.3-49.9-12.5-44.1-17.4-65.7-19-82.9-.2-1.6-.9-3.2-1.7-3.4-1.2-.4-1.3.9-.7 7.4 1.4 15.9 4.9 31.2 18.2 78 7.2 25.5 18.4 69.4 18.4 72 0 .7-1.9 1.8-4.2 2.4-19.1 4.7-57 17.8-78.2 27-17 7.2-36 14-39.6 14-5.7 0-7-1.4-7-7.8 0-3.1.5-7.5 1.1-9.7 1.7-6.3 12.6-29.8 26.7-57.6 23.8-47 46.4-110.4 48.8-136.3.6-6.5.5-7.8-.7-7.4-.9.3-1.7 2.9-2.2 7.4-1.6 14.6-8.8 39.4-20.9 71.9-9.2 24.6-16 40.1-28 63.5-12.3 24.1-23.9 49.4-26.3 57.2-.8 2.8-1.5 7.8-1.5 11 0 7.5 2.7 10.8 8.9 10.8 4.7 0 19.1-4.9 40.1-13.7 21.9-9.1 33.5-13.4 53.4-19.7 22-7 29.7-8.9 30.6-7.9 1 1.1 13.4 52 20.9 85.8 7.7 34.8 14.5 69 16.6 83.3 1.5 10.3 4.4 38.4 4.1 38.9-.6.7-37.2 5.3-46.6 5.9-11.8.6-82-2.8-95.3-4.6-26-3.7-56-14-79.5-27.3C105.4 419.8 94 411 80 397c-14.3-14.2-24.1-27.4-29.9-40.1-3.5-7.8-11.4-34.4-13.5-45.6-8-42.7-1.2-113.5 15.4-162.5 4.8-14.2 13.3-33.4 19-42.9 9.2-15.5 27-35.7 44.4-50.3C130.6 42.7 140.1 36.2 152 30c13.8-7.1 22.7-9.9 52.2-16.6 24.3-5.6 25.8-5.8 38.6-5.7 10.5.1 13.2-.2 13.2-1.3 0-1 2.6-1.4 11.3-1.7 6.1-.1 12.8-.4 14.7-.5 1.9-.1 10.4.3 18.9.8zm-88.8 3.6c-5.7 1.3-10.6 2.2-10.8 2-.7-.7 14.2-4.4 17.7-4.4 2.1 0-.6.9-6.9 2.4z"/>
</svg>
