<svg xmlns="http://www.w3.org/2000/svg" version="1" viewBox="0 0 483 568">
  <path d="M325.6 2.5c-28 4.6-58.8 17.4-88.3 36.6-11.6 7.7-13.2 8.4-26.1 12-18.4 5-26.5 8.1-40.2 14.9-31.8 16-53.6 32.6-77.7 59.2-14.6 16.1-20 22.9-29.3 37-19.8 29.7-38.3 69.8-48.3 104.3C4.4 305.6.2 340 1.3 385.5c1 42.2 6.2 70.4 18.2 99 14.2 34.1 33 55.7 60.4 69.4 18.6 9.4 33.3 12.6 57.6 12.5 39.6-.1 79.4-11.3 127-35.8 40.1-20.6 74-45.3 106.3-77.5 26.7-26.6 46.6-54.2 69-95.6 37-68.4 48.3-128.5 38.6-205-6-47.8-21.7-84-48.2-111.7-24.9-25.9-51-38.4-82.2-39.3-8.9-.3-16.5 0-22.4 1zM369.8 7c10.4 2.7 20.5 6.8 28.5 11.6 16.6 10 35 27.5 45.9 43.8 12.6 18.9 23.3 45.2 27.7 68 4.8 24.8 6.5 42.7 6.5 70.6.1 31.2-1.8 46.3-8.9 74.6-5.6 22.2-12.5 40.4-24 63.9-22.5 45.9-44 77.6-72.4 106.8-35.1 36-68.9 60.9-112.7 83.1-68.2 34.6-129.9 43.4-173.3 24.8C43 535.1 15.6 490.1 6.3 421.1c-2.1-15.7-2.5-74.8-.5-90.6 5.8-46.8 17.4-85.6 38.2-127.3 19.8-39.6 36-61.7 68.2-92.7 7.4-7.2 17-15.5 21.4-18.7 18.7-13.3 44.8-27.3 60.9-32.7 9.3-3.1 24.1-7.3 23.4-6.7-.2.2-5.1 4.1-10.9 8.7-22 17.4-39.8 34.2-58.8 55.4-20.7 23-49.2 58-49.2 60.4 0 2.6 2.4.6 8.7-7.6C145.6 120.5 180.5 84.6 217 57c9.6-7.3 13-8.5 29.4-10 12.6-1.2 14-1.6 13.1-3.1-.7-1.1-13.5-.5-22.2 1.1-2.4.4-4.3.6-4.3.5 0-.9 25.2-15.7 35-20.6 19.3-9.5 39.9-16.5 57.2-19.3 13-2.1 33.6-1.5 44.6 1.4z"/>
  <path d="M251.2 168.2c-7.2 14.5-18.1 35.5-24.2 46.8-11.4 21.1-22 42.3-22 44 0 .6.6 1 1.3 1 .7 0 3.2-4.3 5.7-9.6 2.4-5.3 8.9-18 14.5-28.3 5.6-10.2 16.6-31.2 24.3-46.6l14.2-28-.6 59c-.6 53.6-.4 61.7 1.5 88.5 1.1 16.2 2.6 42.5 3.1 58.5.6 15.9 1.5 33.5 2 38.9.6 5.5.7 10.3.3 10.6-.5.4-6.6 3.3-13.8 6.4C233.4 420 191 443.3 191 446c0 1.8 1.6 1.1 13.6-6.1 11.7-6.9 56-29.2 64-32.2l4.2-1.6 1.6 11.2c.8 6.2 1.7 12.3 1.8 13.6.2 1.4.9 2.6 1.6 2.9 1.6.5 1.6-3.3-.4-16.3-.8-5.9-1.3-11.2-1.1-11.9 1.5-3.8 42.3-15.2 66.9-18.7 15.7-2.3 47.1-3.2 53.1-1.6 2.4.7 2.8.5 2.5-1-.8-4.3-36.5-3.7-64.9 1.1-17.6 3-29.4 6.1-46.1 11.9l-12.7 4.4-.5-2.6c-.9-4.6-1.6-16.9-2.6-45.6-.6-15.4-1.9-41.1-3.1-57-2.1-31.3-2.6-69.7-1.3-117.6.7-28.4.2-36.9-2-36.9-.7 0-7.2 11.8-14.4 26.2z"/>
</svg>
