<svg class="six" xmlns="http://www.w3.org/2000/svg" version="1" viewBox="0 0 559 676">
  <path d="M322 2.1c-22.7 2.5-59.3 12.5-85.3 23.3-15 6.2-42.4 20.5-54.2 28.2-5.3 3.4-1.6-.3 8.3-8.7 14-11.7 32-23.5 39-25.5 3.1-.9 6.1-2 6.6-2.5 2.1-1.9-.7-2.1-6.9-.4-11.5 3.1-31 17.1-57.2 41-6 5.5-17.2 14.6-24.9 20.2-48.7 35.8-88.7 78-134.5 141.6C2.7 233.4.7 237 2.9 237c.5 0 5.6-6.6 11.5-14.8 43.6-60.8 82.7-102.5 129.1-138 9.4-7.2 9.8-7.4 6.3-3.2-23.9 28.4-33.8 42.3-50.1 69.6-22.6 38.1-32.3 62-43.6 107-11.8 46.9-15.5 79.8-13.3 118.2 5.1 88.2 31.3 164.7 74.1 217 10.6 12.8 30.7 32.7 41.1 40.4 25.6 19.1 55.4 32.8 86 39.4 11.5 2.5 33.4 2.5 44.7.1 16.2-3.5 32.3-9.6 53.8-20.4 34.6-17.3 60.6-40 88.6-77.3 28.9-38.5 67.2-109.8 89.6-166.9 25.3-64.4 36.5-114.9 36.7-165.1.1-37.5-5.1-70.3-15.9-99.6-5.6-15.3-21.6-46.7-29.2-57.4-14.5-20.3-44.5-47.7-64.1-58.7-12-6.7-40.2-17.1-56.7-20.9-18-4.1-52.4-6.2-69.5-4.3zm52.7 4.4C392.4 9 410 14 430.5 22.2c18.3 7.4 36.2 19.8 55.8 38.7 17.4 16.8 27.4 30.5 39 53.6 19.5 39.1 27.5 71.3 29.3 118 2.8 71-24.8 163.9-78.3 263.5-36 67.1-66.2 106.7-102.1 133.7-24 18.1-64.4 36.3-90.1 40.7-18.7 3.2-37.5 1.1-61.4-6.8-39.8-13.1-72.1-35.4-101.4-70.1-40.2-47.7-66.2-117.4-74.5-200-.7-7.2-1.2-24.4-1.2-38.5.1-35.8 3.2-57.1 14.9-102.5 9.6-37.3 18.6-60 35.5-89.6 21.4-37.5 38.7-61.5 62.4-86.5 9.8-10.4 19.5-17.3 43.1-30.6C237.8 25.3 285.2 9.3 322.6 5c10.4-1.2 39.2-.4 52.1 1.5z"/>
  <path d="M360.2 89.2c-4.8 6.6-30.5 45.1-43.9 65.8-35.8 55.5-66.1 115.5-81.3 161-10.4 31.3-16.9 64.5-18.3 93.5l-.2 5-9 6.7c-7.9 5.8-11.5 9.9-8.8 9.8.4 0 4.6-2.9 9.3-6.5l8.5-6.4.7 9.8c3.2 47.7 24.6 82.4 59.2 96.3 7.8 3.1 8.6 3.3 21.6 3.2 12 0 14.4-.3 22-2.8 17.6-5.8 32.4-15.2 48.3-30.5 13-12.6 20.9-22.2 32.2-39.1 16.4-24.6 24.8-42.6 29.6-63.1 3.1-13.2 3.2-32 .1-40.1-3.5-9.6-10.6-18.5-16.5-20.7-4.2-1.6-26.3-1.3-35.6.4-38.6 7.4-92.1 34-149.5 74.5l-8.9 6.3.6-10.7c2.7-43.9 18.3-96.2 44.8-150.1 21.9-44.7 53.1-96.5 90-149.7 6-8.6 10.9-16.2 10.9-16.8 0-2.3-2.1-.7-5.8 4.2zm54 245.5c4 2 10.3 10.4 12.8 17 6.3 16.6 1.8 45-11.5 71.8-15.5 31.4-39.6 62.4-62 79.7-10.6 8.2-27.7 16.9-38.9 19.8-9.6 2.4-22.2 2.6-31 .4-7.5-1.9-19.1-8.1-27.5-14.6-20.4-16-34.2-47.2-35.7-80.8l-.5-12.5 4.3-2.9c46.5-31.6 58.2-38.9 83.4-51.7 23.6-11.9 47.8-21.3 65.9-25.5 14.5-3.3 34.9-3.7 40.7-.7z"/>
</svg>
