<svg class="three" xmlns="http://www.w3.org/2000/svg" version="1" viewBox="0 0 477 457">
  <path d="M207.8 2.1c-16.2 2.1-38.3 8.4-52.3 14.8-10.6 5-36.9 19.9-47.5 27.1-4.8 3.3-13.9 8-21 11-15.8 6.5-45.6 21-67 32.4C3 96.5.1 98.4 1.4 99.7c.4.4 4.6-1.4 9.4-4 23.1-12.6 77.9-39.3 78.8-38.4.2.1-4.9 4.9-11.3 10.6-19.6 17.7-31.7 33.7-44.8 59.7C18.9 156.3 10 191.9 10 221.2c0 13 1.7 25.2 5.5 40.3 4.4 17.6 9.1 29.8 19 50 13.3 26.9 22.4 39.9 43.9 62.2 29.2 30.5 56.2 50.6 83.7 62.3 5.2 2.2 10.3 4.5 11.4 5 3.7 1.6 28.9 8 41.5 10.5 28.3 5.5 52.8 5.8 78.2 1.1 33.2-6.2 50.6-15 76.8-38.8 37.6-34.1 58.5-64.5 79.5-115.3 11.6-28.1 19.8-54.9 24.1-79 2.4-13.8 2.5-39.8.1-51.8-6.6-32.7-20.8-57.1-45.4-77.7-37.4-31.3-99.1-59.2-149.8-67.7-14-2.3-62.7-2.6-77-.4-23.1 3.4-61 12.9-82 20.5-8.6 3.1-7 1.8 10.5-8.3 26.1-15.2 38.6-20.5 59.5-25.4 26-6.2 51.2-6 82.2.3 13.9 2.9 42.4 13.1 52 18.6 4.4 2.5 7.3 3.1 7.3 1.4 0-2.6-36.7-17.6-52-21.4-23.1-5.6-52.7-7.9-71.2-5.5zM271 24.6c30.4 3.5 65 14.8 103.4 34 17.1 8.5 27.7 15.1 41.7 25.5 21.8 16.5 34.3 31 43.9 51.2 20.7 43.5 16.5 90.5-14.7 165.6-20.3 48.9-42.1 79.7-80.3 113.4-25 22.1-41.5 29.9-77 36.4-14.9 2.7-47.5 2.5-64.3-.5-12.3-2.2-31.6-6.7-40.6-9.5l-4.3-1.3 12.3-9.9c17.6-14.1 34-27.8 52.4-44 8.8-7.7 21.9-19 29-25 52.2-43.8 80.6-75.4 96.5-107.4 4.9-9.8 5.3-14.1 1.8-20.3-8.5-15.5-30.4-15.7-94.3-1.3-45.7 10.3-51.8 11.6-53.9 11.3-1.8-.3-.8-1.7 6.4-9.1 4.6-4.9 14.1-13.4 21-19 37.1-30 68.7-60.4 74.6-71.9 2.4-4.6 1.3-12.1-2.4-16.7-4-5.1-10.4-7.9-22.8-10.2-29.8-5.3-61.8-2.9-111.2 8.6-13.1 3-24.2 5.5-24.5 5.5-.4 0-.7.7-.7 1.5s.4 1.5.9 1.5 9.4-2 19.7-4.4c41-9.6 57.2-11.9 84.4-12 22.4-.1 36 1.8 45 6.2 6.7 3.3 9.1 6.6 9.7 12.9.5 4.7.3 5.1-5.5 12.3-10.8 13.6-41.5 42.3-66.2 62-18.9 15.1-34.6 31.3-33.3 34.6.9 2.4 6.7 1.7 32.3-4.1 64.4-14.6 75.4-16.6 90.6-16.7 17.3 0 26.7 4.3 29.2 13.6.9 3.1.7 4.7-.9 9.2-2.6 6.8-13.3 24.4-22.9 37.6-9.8 13.6-41.6 45.3-66.9 66.8-10.7 9.1-28.9 24.8-40.5 34.9-19.3 16.8-41.7 35.4-57.2 47.4l-6.1 4.8-6.7-2.5c-15.9-6-38.2-19.3-55.6-33.2-11.8-9.5-41-38.9-50.7-51-9.5-12-15.6-22-24.8-40.4-25.1-50.2-30.3-89.6-18-137.4 4.5-17.9 9.3-30.4 17.7-46.6 12.9-25.1 24.9-40.8 44.2-57.9 19.7-17.4 19.2-17.1 42.9-24.9 59.8-19.7 99.6-25.1 146.7-19.6z"/>
</svg>
