<svg class="two" xmlns="http://www.w3.org/2000/svg" version="1" viewBox="0 0 500 481">
  <path d="M305.3 2c-55.6 4.7-113.5 28.2-174.6 71.1-7.1 5-13 8.9-13.2 8.7-.6-.5 32.7-36.9 44.2-48.4 5.6-5.6 11.6-10.8 13.2-11.5 3.1-1.4 4.3-3.9 1.9-3.9-2.9 0-9 4.9-19.7 15.8-12.8 13.1-36.3 38.9-45.5 50-3.4 4-11 11.2-17.1 16C62.7 124.8 2 177.6 2 180.2c0 2.3 4.1-.8 20.2-15.2 27.3-24.5 71.5-62 73.2-62 .3 0-3.1 4.9-7.4 11-15 20.9-30.8 49.9-38.3 70-7.1 19.1-11 45.2-11 73-.1 38.7 5.8 64.5 21.7 96.6 10.8 21.6 19.2 34.1 35.8 53.3 15.4 17.9 25.7 26.7 43.9 37.6 39.4 23.5 72.8 32.9 120.9 34.2 23.7.6 35.1-.3 54.3-4.3 29.4-6.2 45.4-14.1 77.7-38.3 47.3-35.4 86-100.6 99.5-167.6 4.7-23.4 5.9-36.1 5.9-66 0-23.9-.3-30-2.2-42-5.6-35.6-14.9-60.4-32.7-87C437.7 35 399.1 10.3 354 3.5 341.6 1.7 318.2.9 305.3 2zM342 5.1c32.9 3 57.3 12.4 83.6 32 22.7 16.9 44.4 46.8 55.8 76.5 19.7 51.9 19.3 128.3-1 189.3-14.9 44.4-43 89.6-72.9 117.2-19.2 17.7-47.5 36.6-64.8 43.3-36 14-83.7 16.5-130.6 7-17.8-3.6-32.2-8.6-50.1-17.5-33-16.5-45.5-26.1-67.9-52.9-21.1-25.2-36.7-53.5-44.7-81.3-10.2-35.3-10.5-83.9-.8-121.3 6.2-24.2 26.3-61.6 48.9-91.3 8.5-11.2 9.9-12.6 22.6-21.9C143.8 66.7 177 46.5 200 35.3 249.1 11.5 298.5 1 342 5.1z"/>
  <path d="M282 73.7c-17.1 3-37.3 9.9-55.5 19-12.9 6.5-19.5 10.8-19.5 12.8 0 2.1.4 2 7.2-2.6 16.2-11.1 45.7-22.1 70.3-26.5 10.5-1.8 30.4-1.8 39.7.1 22.8 4.7 37.3 20.2 44 47.3 3.1 12.3 3 37.3-.1 51.7-3.1 14.5-8.4 29.2-15.6 44-5.2 10.6-15.2 27.4-18.4 30.8-.4.4-3.8-.8-7.7-2.7-15.5-7.7-34.3-12.3-53.5-13.3-15-.7-25.8.6-38.4 4.8-23.6 7.8-41.4 25.4-56.1 55.4-7 14.4-14.4 35.1-14.4 40.5 0 5 3.9 10.3 9.7 13.1 5.8 2.9 17.5 3.7 26.7 1.9 9.4-1.8 31.2-9.3 40.4-13.8 25.9-12.7 65.7-46 86.6-72.4l6.8-8.7 6.2 4.1c3.3 2.3 10.7 7.7 16.4 12 9.8 7.4 12.2 8.8 12.2 7 0-1.7-14.5-13.2-27.2-21.6l-5.6-3.8 6.9-10.6c34.4-52.8 40.4-113.9 14.7-148.6-11.2-15.1-27.9-21.7-54.6-21.5-7 0-16.5.8-21.2 1.6zm4.5 164.8c11.5 1.9 24 5.4 33.6 9.4 12.2 5.1 12.1 4.9 6.9 11.7-12.8 16.5-27.8 31.4-49 48.3-22.8 18.3-37.1 26.5-58.5 33.6-15.3 5-21.9 6.5-30 6.5-9.6 0-14.2-1.5-18.9-6.1-3.7-3.7-3.8-4.2-3.3-8.7.8-6.5 7.7-25.3 14.2-38.3 16.8-34 37-51 66.8-56.4 9.8-1.8 27.4-1.8 38.2 0z"/>
</svg>
